%TF.GenerationSoftware,KiCad,Pcbnew,9.0.6*%
%TF.CreationDate,2025-12-18T07:40:16+02:00*%
%TF.ProjectId,opetusSMPS_HVcontrol,6f706574-7573-4534-9d50-535f4856636f,rev?*%
%TF.SameCoordinates,Original*%
%TF.FileFunction,Copper,L1,Top*%
%TF.FilePolarity,Positive*%
%FSLAX46Y46*%
G04 Gerber Fmt 4.6, Leading zero omitted, Abs format (unit mm)*
G04 Created by KiCad (PCBNEW 9.0.6) date 2025-12-18 07:40:16*
%MOMM*%
%LPD*%
G01*
G04 APERTURE LIST*
G04 Aperture macros list*
%AMRoundRect*
0 Rectangle with rounded corners*
0 $1 Rounding radius*
0 $2 $3 $4 $5 $6 $7 $8 $9 X,Y pos of 4 corners*
0 Add a 4 corners polygon primitive as box body*
4,1,4,$2,$3,$4,$5,$6,$7,$8,$9,$2,$3,0*
0 Add four circle primitives for the rounded corners*
1,1,$1+$1,$2,$3*
1,1,$1+$1,$4,$5*
1,1,$1+$1,$6,$7*
1,1,$1+$1,$8,$9*
0 Add four rect primitives between the rounded corners*
20,1,$1+$1,$2,$3,$4,$5,0*
20,1,$1+$1,$4,$5,$6,$7,0*
20,1,$1+$1,$6,$7,$8,$9,0*
20,1,$1+$1,$8,$9,$2,$3,0*%
G04 Aperture macros list end*
%TA.AperFunction,SMDPad,CuDef*%
%ADD10RoundRect,0.237500X0.237500X-0.250000X0.237500X0.250000X-0.237500X0.250000X-0.237500X-0.250000X0*%
%TD*%
%TA.AperFunction,SMDPad,CuDef*%
%ADD11RoundRect,0.237500X-0.300000X-0.237500X0.300000X-0.237500X0.300000X0.237500X-0.300000X0.237500X0*%
%TD*%
%TA.AperFunction,SMDPad,CuDef*%
%ADD12RoundRect,0.237500X-0.237500X0.300000X-0.237500X-0.300000X0.237500X-0.300000X0.237500X0.300000X0*%
%TD*%
%TA.AperFunction,SMDPad,CuDef*%
%ADD13RoundRect,0.150000X0.150000X-0.825000X0.150000X0.825000X-0.150000X0.825000X-0.150000X-0.825000X0*%
%TD*%
%TA.AperFunction,SMDPad,CuDef*%
%ADD14RoundRect,0.237500X0.300000X0.237500X-0.300000X0.237500X-0.300000X-0.237500X0.300000X-0.237500X0*%
%TD*%
%TA.AperFunction,ComponentPad*%
%ADD15C,4.000000*%
%TD*%
%TA.AperFunction,ComponentPad*%
%ADD16R,1.600000X1.600000*%
%TD*%
%TA.AperFunction,ComponentPad*%
%ADD17C,1.600000*%
%TD*%
%TA.AperFunction,ComponentPad*%
%ADD18RoundRect,0.250001X-0.949999X-0.949999X0.949999X-0.949999X0.949999X0.949999X-0.949999X0.949999X0*%
%TD*%
%TA.AperFunction,ComponentPad*%
%ADD19C,2.400000*%
%TD*%
%TA.AperFunction,ViaPad*%
%ADD20C,0.800000*%
%TD*%
%TA.AperFunction,Conductor*%
%ADD21C,0.200000*%
%TD*%
%TA.AperFunction,Conductor*%
%ADD22C,0.800000*%
%TD*%
G04 APERTURE END LIST*
D10*
%TO.P,R2,1*%
%TO.N,/TX_OUT*%
X148500000Y-71825000D03*
%TO.P,R2,2*%
%TO.N,Net-(J1-P14)*%
X148500000Y-70000000D03*
%TD*%
D11*
%TO.P,C2,1*%
%TO.N,Net-(U1-C2+)*%
X149525000Y-81750000D03*
%TO.P,C2,2*%
%TO.N,Net-(U1-C2-)*%
X151250000Y-81750000D03*
%TD*%
D12*
%TO.P,C3,1*%
%TO.N,Net-(U1-VS+)*%
X143750000Y-77275000D03*
%TO.P,C3,2*%
%TO.N,GND*%
X143750000Y-79000000D03*
%TD*%
D11*
%TO.P,C1,1*%
%TO.N,Net-(U1-C1+)*%
X146025000Y-81750000D03*
%TO.P,C1,2*%
%TO.N,Net-(U1-C1-)*%
X147750000Y-81750000D03*
%TD*%
D13*
%TO.P,U1,1,C1+*%
%TO.N,Net-(U1-C1+)*%
X145880000Y-79200000D03*
%TO.P,U1,2,VS+*%
%TO.N,Net-(U1-VS+)*%
X147150000Y-79200000D03*
%TO.P,U1,3,C1-*%
%TO.N,Net-(U1-C1-)*%
X148420000Y-79200000D03*
%TO.P,U1,4,C2+*%
%TO.N,Net-(U1-C2+)*%
X149690000Y-79200000D03*
%TO.P,U1,5,C2-*%
%TO.N,Net-(U1-C2-)*%
X150960000Y-79200000D03*
%TO.P,U1,6,VS-*%
%TO.N,Net-(U1-VS-)*%
X152230000Y-79200000D03*
%TO.P,U1,7,T2OUT*%
%TO.N,unconnected-(U1-T2OUT-Pad7)*%
X153500000Y-79200000D03*
%TO.P,U1,8,R2IN*%
%TO.N,unconnected-(U1-R2IN-Pad8)*%
X154770000Y-79200000D03*
%TO.P,U1,9,R2OUT*%
%TO.N,unconnected-(U1-R2OUT-Pad9)*%
X154770000Y-74250000D03*
%TO.P,U1,10,T2IN*%
%TO.N,unconnected-(U1-T2IN-Pad10)*%
X153500000Y-74250000D03*
%TO.P,U1,11,T1IN*%
%TO.N,/TX_IN*%
X152230000Y-74250000D03*
%TO.P,U1,12,R1OUT*%
%TO.N,/RX_OUT*%
X150960000Y-74250000D03*
%TO.P,U1,13,R1IN*%
%TO.N,/RX_IN*%
X149690000Y-74250000D03*
%TO.P,U1,14,T1OUT*%
%TO.N,/TX_OUT*%
X148420000Y-74250000D03*
%TO.P,U1,15,GND*%
%TO.N,GND*%
X147150000Y-74250000D03*
%TO.P,U1,16,VCC*%
%TO.N,/3V3*%
X145880000Y-74250000D03*
%TD*%
D12*
%TO.P,C4,1*%
%TO.N,Net-(U1-VS-)*%
X157750000Y-77250000D03*
%TO.P,C4,2*%
%TO.N,GND*%
X157750000Y-78975000D03*
%TD*%
D10*
%TO.P,R1,1*%
%TO.N,/RX_OUT*%
X151000000Y-71825000D03*
%TO.P,R1,2*%
%TO.N,Net-(J1-P15)*%
X151000000Y-70000000D03*
%TD*%
D14*
%TO.P,C5,1*%
%TO.N,/3V3*%
X142362500Y-74250000D03*
%TO.P,C5,2*%
%TO.N,GND*%
X140637500Y-74250000D03*
%TD*%
D15*
%TO.P,J1,0*%
%TO.N,N/C*%
X159440000Y-59420000D03*
X126140000Y-59420000D03*
D16*
%TO.P,J1,1,1*%
%TO.N,GND*%
X133095000Y-60840000D03*
D17*
%TO.P,J1,2,2*%
%TO.N,/+24V*%
X135865000Y-60840000D03*
%TO.P,J1,3,3*%
%TO.N,unconnected-(J1-Pad3)*%
X138635000Y-60840000D03*
%TO.P,J1,4,4*%
%TO.N,unconnected-(J1-Pad4)*%
X141405000Y-60840000D03*
%TO.P,J1,5,5*%
%TO.N,Net-(J1-P10)*%
X144175000Y-60840000D03*
%TO.P,J1,6,6*%
%TO.N,unconnected-(J1-Pad6)*%
X146945000Y-60840000D03*
%TO.P,J1,7,7*%
%TO.N,unconnected-(J1-Pad7)*%
X149715000Y-60840000D03*
%TO.P,J1,8,8*%
%TO.N,unconnected-(J1-Pad8)*%
X152485000Y-60840000D03*
%TO.P,J1,9,P9*%
%TO.N,unconnected-(J1-P9-Pad9)*%
X134480000Y-58000000D03*
%TO.P,J1,10,P10*%
%TO.N,Net-(J1-P10)*%
X137250000Y-58000000D03*
%TO.P,J1,11,P111*%
%TO.N,GND*%
X140020000Y-58000000D03*
%TO.P,J1,12,P12*%
X142790000Y-58000000D03*
%TO.P,J1,13,P13*%
%TO.N,unconnected-(J1-P13-Pad13)*%
X145560000Y-58000000D03*
%TO.P,J1,14,P14*%
%TO.N,Net-(J1-P14)*%
X148330000Y-58000000D03*
%TO.P,J1,15,P15*%
%TO.N,Net-(J1-P15)*%
X151100000Y-58000000D03*
%TD*%
D18*
%TO.P,J2,1,Pin_1*%
%TO.N,/+24V*%
X129430000Y-89500000D03*
D19*
%TO.P,J2,2,Pin_2*%
%TO.N,GND*%
X134510000Y-89500000D03*
%TO.P,J2,3,Pin_3*%
%TO.N,/3V3*%
X139590000Y-89500000D03*
%TO.P,J2,4,Pin_4*%
%TO.N,/RX_IN*%
X144670000Y-89500000D03*
%TO.P,J2,5,Pin_5*%
%TO.N,/TX_IN*%
X149750000Y-89500000D03*
%TD*%
D20*
%TO.N,GND*%
X135500000Y-77000000D03*
X149750000Y-66750000D03*
%TO.N,/TX_IN*%
X155250000Y-72250000D03*
X155250000Y-84750000D03*
%TO.N,/RX_IN*%
X154000000Y-84750000D03*
X149750000Y-68500000D03*
%TD*%
D21*
%TO.N,Net-(U1-C1-)*%
X147750000Y-81750000D02*
X147750000Y-81250000D01*
X147750000Y-81250000D02*
X148420000Y-80580000D01*
X148420000Y-80580000D02*
X148420000Y-79200000D01*
%TO.N,Net-(U1-C1+)*%
X146025000Y-79345000D02*
X145880000Y-79200000D01*
X146025000Y-81750000D02*
X146025000Y-79345000D01*
%TO.N,Net-(U1-C2+)*%
X149525000Y-79365000D02*
X149690000Y-79200000D01*
X149525000Y-81750000D02*
X149525000Y-79365000D01*
%TO.N,Net-(U1-C2-)*%
X151250000Y-81750000D02*
X151250000Y-79490000D01*
X151250000Y-79490000D02*
X150960000Y-79200000D01*
%TO.N,Net-(U1-VS+)*%
X143750000Y-77275000D02*
X146199999Y-77275000D01*
X146199999Y-77275000D02*
X147150000Y-78225001D01*
X147150000Y-78225001D02*
X147150000Y-79200000D01*
%TO.N,Net-(U1-VS-)*%
X152230000Y-79200000D02*
X152230000Y-78225001D01*
X153205001Y-77250000D02*
X157750000Y-77250000D01*
X152230000Y-78225001D02*
X153205001Y-77250000D01*
%TO.N,/3V3*%
X142362500Y-74250000D02*
X145880000Y-74250000D01*
X139590000Y-89500000D02*
X139590000Y-78660000D01*
X142362500Y-75887500D02*
X142362500Y-74250000D01*
X139590000Y-78660000D02*
X142362500Y-75887500D01*
%TO.N,Net-(J1-P10)*%
X138989000Y-59739000D02*
X143074000Y-59739000D01*
X137250000Y-58000000D02*
X138989000Y-59739000D01*
X143074000Y-59739000D02*
X144175000Y-60840000D01*
D22*
%TO.N,/+24V*%
X129430000Y-75320000D02*
X135865000Y-68885000D01*
X129430000Y-89500000D02*
X129430000Y-75320000D01*
X135865000Y-68885000D02*
X135865000Y-60840000D01*
D21*
%TO.N,Net-(J1-P15)*%
X151100000Y-58000000D02*
X151100000Y-69900000D01*
X151100000Y-69900000D02*
X151000000Y-70000000D01*
%TO.N,Net-(J1-P14)*%
X148500000Y-58170000D02*
X148500000Y-70000000D01*
X148330000Y-58000000D02*
X148500000Y-58170000D01*
%TO.N,/TX_IN*%
X149750000Y-89500000D02*
X150500000Y-89500000D01*
X153255001Y-72250000D02*
X152230000Y-73275001D01*
X155250000Y-72250000D02*
X153255001Y-72250000D01*
X150500000Y-89500000D02*
X155250000Y-84750000D01*
X152230000Y-73275001D02*
X152230000Y-74250000D01*
%TO.N,/RX_IN*%
X149420000Y-84750000D02*
X154000000Y-84750000D01*
X149750000Y-68500000D02*
X149690000Y-68560000D01*
X149690000Y-68560000D02*
X149690000Y-74250000D01*
X144670000Y-89500000D02*
X149420000Y-84750000D01*
%TO.N,/RX_OUT*%
X151000000Y-71825000D02*
X151000000Y-74210000D01*
X151000000Y-74210000D02*
X150960000Y-74250000D01*
%TO.N,/TX_OUT*%
X148420000Y-74250000D02*
X148420000Y-71905000D01*
X148420000Y-71905000D02*
X148500000Y-71825000D01*
%TD*%
%TA.AperFunction,Conductor*%
%TO.N,GND*%
G36*
X124927332Y-57020185D02*
G01*
X124973087Y-57072989D01*
X124983031Y-57142147D01*
X124954006Y-57205703D01*
X124926265Y-57229494D01*
X124690753Y-57377476D01*
X124471175Y-57552583D01*
X124272583Y-57751175D01*
X124097476Y-57970753D01*
X123948053Y-58208557D01*
X123826200Y-58461588D01*
X123733443Y-58726670D01*
X123733439Y-58726682D01*
X123670945Y-59000487D01*
X123670942Y-59000505D01*
X123639500Y-59279568D01*
X123639500Y-59560431D01*
X123670942Y-59839494D01*
X123670945Y-59839512D01*
X123733439Y-60113317D01*
X123733443Y-60113329D01*
X123826200Y-60378411D01*
X123948053Y-60631442D01*
X123948055Y-60631445D01*
X124097477Y-60869248D01*
X124126647Y-60905826D01*
X124262284Y-61075910D01*
X124272584Y-61088825D01*
X124471175Y-61287416D01*
X124690752Y-61462523D01*
X124928555Y-61611945D01*
X125181592Y-61733801D01*
X125380680Y-61803465D01*
X125446670Y-61826556D01*
X125446682Y-61826560D01*
X125720491Y-61889055D01*
X125720497Y-61889055D01*
X125720505Y-61889057D01*
X125906547Y-61910018D01*
X125999569Y-61920499D01*
X125999572Y-61920500D01*
X125999575Y-61920500D01*
X126280428Y-61920500D01*
X126280429Y-61920499D01*
X126423055Y-61904429D01*
X126559494Y-61889057D01*
X126559499Y-61889056D01*
X126559509Y-61889055D01*
X126833318Y-61826560D01*
X127098408Y-61733801D01*
X127351445Y-61611945D01*
X127589248Y-61462523D01*
X127808825Y-61287416D01*
X128007416Y-61088825D01*
X128182523Y-60869248D01*
X128331945Y-60631445D01*
X128453801Y-60378408D01*
X128546560Y-60113318D01*
X128609055Y-59839509D01*
X128640500Y-59560425D01*
X128640500Y-59279575D01*
X128624605Y-59138499D01*
X128609057Y-59000505D01*
X128609054Y-59000487D01*
X128546560Y-58726682D01*
X128546556Y-58726670D01*
X128523465Y-58660680D01*
X128453801Y-58461592D01*
X128358866Y-58264457D01*
X128331946Y-58208557D01*
X128331945Y-58208555D01*
X128182523Y-57970752D01*
X128007416Y-57751175D01*
X127808825Y-57552584D01*
X127785615Y-57534075D01*
X127742887Y-57500000D01*
X127589248Y-57377477D01*
X127353734Y-57229493D01*
X127307444Y-57177159D01*
X127296796Y-57108106D01*
X127325171Y-57044257D01*
X127383561Y-57005885D01*
X127419707Y-57000500D01*
X133355309Y-57000500D01*
X133422348Y-57020185D01*
X133468103Y-57072989D01*
X133478047Y-57142147D01*
X133455627Y-57197385D01*
X133367715Y-57318386D01*
X133274781Y-57500776D01*
X133211522Y-57695465D01*
X133179500Y-57897648D01*
X133179500Y-58102351D01*
X133211522Y-58304534D01*
X133274781Y-58499223D01*
X133338691Y-58624653D01*
X133367585Y-58681359D01*
X133367715Y-58681613D01*
X133488028Y-58847213D01*
X133632786Y-58991971D01*
X133753226Y-59079474D01*
X133798390Y-59112287D01*
X133879499Y-59153614D01*
X133980776Y-59205218D01*
X133980778Y-59205218D01*
X133980781Y-59205220D01*
X134047647Y-59226946D01*
X134175465Y-59268477D01*
X134245516Y-59279572D01*
X134377648Y-59300500D01*
X134377649Y-59300500D01*
X134582351Y-59300500D01*
X134582352Y-59300500D01*
X134784534Y-59268477D01*
X134979219Y-59205220D01*
X135161610Y-59112287D01*
X135255810Y-59043847D01*
X135327213Y-58991971D01*
X135327215Y-58991968D01*
X135327219Y-58991966D01*
X135471966Y-58847219D01*
X135471968Y-58847215D01*
X135471971Y-58847213D01*
X135524732Y-58774590D01*
X135592287Y-58681610D01*
X135685220Y-58499219D01*
X135747069Y-58308868D01*
X135786507Y-58251193D01*
X135850866Y-58223995D01*
X135919712Y-58235910D01*
X135971188Y-58283154D01*
X135982931Y-58308868D01*
X136044781Y-58499223D01*
X136108691Y-58624653D01*
X136137585Y-58681359D01*
X136137715Y-58681613D01*
X136258028Y-58847213D01*
X136402786Y-58991971D01*
X136523226Y-59079474D01*
X136568390Y-59112287D01*
X136649499Y-59153614D01*
X136750776Y-59205218D01*
X136750778Y-59205218D01*
X136750781Y-59205220D01*
X136817647Y-59226946D01*
X136945465Y-59268477D01*
X137015516Y-59279572D01*
X137147648Y-59300500D01*
X137147649Y-59300500D01*
X137352351Y-59300500D01*
X137352352Y-59300500D01*
X137554534Y-59268477D01*
X137568842Y-59263827D01*
X137638682Y-59261831D01*
X137694842Y-59294077D01*
X137952137Y-59551372D01*
X137985622Y-59612695D01*
X137980638Y-59682387D01*
X137938766Y-59738320D01*
X137937341Y-59739371D01*
X137787787Y-59848028D01*
X137787782Y-59848032D01*
X137643028Y-59992786D01*
X137522715Y-60158386D01*
X137429781Y-60340776D01*
X137367931Y-60531131D01*
X137328493Y-60588806D01*
X137264134Y-60616004D01*
X137195288Y-60604089D01*
X137143812Y-60556845D01*
X137132069Y-60531131D01*
X137070218Y-60340776D01*
X137036503Y-60274607D01*
X136977287Y-60158390D01*
X136944540Y-60113317D01*
X136856971Y-59992786D01*
X136712213Y-59848028D01*
X136546613Y-59727715D01*
X136546612Y-59727714D01*
X136546610Y-59727713D01*
X136479499Y-59693518D01*
X136364223Y-59634781D01*
X136169534Y-59571522D01*
X135994995Y-59543878D01*
X135967352Y-59539500D01*
X135762648Y-59539500D01*
X135738329Y-59543351D01*
X135560465Y-59571522D01*
X135365776Y-59634781D01*
X135183386Y-59727715D01*
X135017786Y-59848028D01*
X134873028Y-59992786D01*
X134752715Y-60158386D01*
X134659781Y-60340776D01*
X134636931Y-60411103D01*
X134597493Y-60468778D01*
X134533134Y-60495976D01*
X134464288Y-60484061D01*
X134412812Y-60436816D01*
X134395000Y-60372784D01*
X134395000Y-59992172D01*
X134394999Y-59992155D01*
X134388598Y-59932627D01*
X134388596Y-59932620D01*
X134338354Y-59797913D01*
X134338350Y-59797906D01*
X134252190Y-59682812D01*
X134252187Y-59682809D01*
X134137093Y-59596649D01*
X134137086Y-59596645D01*
X134002379Y-59546403D01*
X134002372Y-59546401D01*
X133942844Y-59540000D01*
X133345000Y-59540000D01*
X133345000Y-60406988D01*
X133287993Y-60374075D01*
X133160826Y-60340000D01*
X133029174Y-60340000D01*
X132902007Y-60374075D01*
X132845000Y-60406988D01*
X132845000Y-59540000D01*
X132247155Y-59540000D01*
X132187627Y-59546401D01*
X132187620Y-59546403D01*
X132052913Y-59596645D01*
X132052906Y-59596649D01*
X131937812Y-59682809D01*
X131937809Y-59682812D01*
X131851649Y-59797906D01*
X131851645Y-59797913D01*
X131801403Y-59932620D01*
X131801401Y-59932627D01*
X131795000Y-59992155D01*
X131795000Y-60590000D01*
X132661988Y-60590000D01*
X132629075Y-60647007D01*
X132595000Y-60774174D01*
X132595000Y-60905826D01*
X132629075Y-61032993D01*
X132661988Y-61090000D01*
X131795000Y-61090000D01*
X131795000Y-61687844D01*
X131801401Y-61747372D01*
X131801403Y-61747379D01*
X131851645Y-61882086D01*
X131851649Y-61882093D01*
X131937809Y-61997187D01*
X131937812Y-61997190D01*
X132052906Y-62083350D01*
X132052913Y-62083354D01*
X132187620Y-62133596D01*
X132187627Y-62133598D01*
X132247155Y-62139999D01*
X132247172Y-62140000D01*
X132845000Y-62140000D01*
X132845000Y-61273012D01*
X132902007Y-61305925D01*
X133029174Y-61340000D01*
X133160826Y-61340000D01*
X133287993Y-61305925D01*
X133345000Y-61273012D01*
X133345000Y-62140000D01*
X133942828Y-62140000D01*
X133942844Y-62139999D01*
X134002372Y-62133598D01*
X134002379Y-62133596D01*
X134137086Y-62083354D01*
X134137093Y-62083350D01*
X134252187Y-61997190D01*
X134252190Y-61997187D01*
X134338350Y-61882093D01*
X134338354Y-61882086D01*
X134388596Y-61747379D01*
X134388598Y-61747372D01*
X134394999Y-61687844D01*
X134395000Y-61687827D01*
X134395000Y-61307215D01*
X134414685Y-61240176D01*
X134467489Y-61194421D01*
X134536647Y-61184477D01*
X134600203Y-61213502D01*
X134636931Y-61268896D01*
X134659781Y-61339223D01*
X134752715Y-61521613D01*
X134873028Y-61687213D01*
X134928181Y-61742366D01*
X134961666Y-61803689D01*
X134964500Y-61830047D01*
X134964500Y-68460637D01*
X134944815Y-68527676D01*
X134928181Y-68548318D01*
X128730540Y-74745958D01*
X128730534Y-74745965D01*
X128695912Y-74797781D01*
X128695902Y-74797797D01*
X128693418Y-74801516D01*
X128631987Y-74893453D01*
X128609248Y-74948350D01*
X128606301Y-74955463D01*
X128606300Y-74955466D01*
X128564105Y-75057333D01*
X128564103Y-75057341D01*
X128530654Y-75225500D01*
X128530655Y-75225501D01*
X128529500Y-75231305D01*
X128529500Y-87677356D01*
X128509815Y-87744395D01*
X128457011Y-87790150D01*
X128418103Y-87800714D01*
X128327205Y-87810000D01*
X128327203Y-87810001D01*
X128160664Y-87865186D01*
X128160662Y-87865187D01*
X128011348Y-87957286D01*
X128011344Y-87957289D01*
X127887289Y-88081344D01*
X127887286Y-88081348D01*
X127795187Y-88230662D01*
X127795186Y-88230664D01*
X127740001Y-88397203D01*
X127740000Y-88397204D01*
X127729500Y-88499984D01*
X127729500Y-90500015D01*
X127740000Y-90602795D01*
X127740001Y-90602797D01*
X127746904Y-90623629D01*
X127795186Y-90769335D01*
X127795187Y-90769337D01*
X127887286Y-90918651D01*
X127887289Y-90918655D01*
X128011344Y-91042710D01*
X128011348Y-91042713D01*
X128160662Y-91134812D01*
X128160664Y-91134813D01*
X128160666Y-91134814D01*
X128327203Y-91189999D01*
X128429992Y-91200500D01*
X128429997Y-91200500D01*
X130430003Y-91200500D01*
X130430008Y-91200500D01*
X130532797Y-91189999D01*
X130699334Y-91134814D01*
X130848655Y-91042711D01*
X130972711Y-90918655D01*
X131027535Y-90829770D01*
X131064810Y-90769341D01*
X131064810Y-90769339D01*
X131064814Y-90769334D01*
X131119999Y-90602797D01*
X131130500Y-90500008D01*
X131130500Y-89388575D01*
X132810000Y-89388575D01*
X132810000Y-89611424D01*
X132839085Y-89832354D01*
X132839088Y-89832367D01*
X132896763Y-90047618D01*
X132982045Y-90253502D01*
X132982054Y-90253520D01*
X133093464Y-90446491D01*
X133093473Y-90446504D01*
X133144040Y-90512403D01*
X133144043Y-90512403D01*
X133794152Y-89862293D01*
X133801049Y-89878942D01*
X133888599Y-90009970D01*
X134000030Y-90121401D01*
X134131058Y-90208951D01*
X134147705Y-90215846D01*
X133497595Y-90865955D01*
X133497595Y-90865956D01*
X133563507Y-90916533D01*
X133756485Y-91027949D01*
X133756497Y-91027954D01*
X133962381Y-91113236D01*
X134177632Y-91170911D01*
X134177645Y-91170914D01*
X134398575Y-91200000D01*
X134621425Y-91200000D01*
X134842354Y-91170914D01*
X134842367Y-91170911D01*
X135057618Y-91113236D01*
X135263502Y-91027954D01*
X135263514Y-91027949D01*
X135456498Y-90916530D01*
X135522403Y-90865957D01*
X135522404Y-90865956D01*
X134872294Y-90215846D01*
X134888942Y-90208951D01*
X135019970Y-90121401D01*
X135131401Y-90009970D01*
X135218951Y-89878942D01*
X135225846Y-89862294D01*
X135875956Y-90512404D01*
X135875957Y-90512403D01*
X135926530Y-90446498D01*
X136037949Y-90253514D01*
X136037954Y-90253502D01*
X136123236Y-90047618D01*
X136180911Y-89832367D01*
X136180914Y-89832354D01*
X136210000Y-89611424D01*
X136210000Y-89388575D01*
X136209997Y-89388549D01*
X137889500Y-89388549D01*
X137889500Y-89611450D01*
X137889501Y-89611466D01*
X137918594Y-89832452D01*
X137918595Y-89832457D01*
X137918596Y-89832463D01*
X137976290Y-90047780D01*
X137976293Y-90047790D01*
X138061593Y-90253722D01*
X138061595Y-90253726D01*
X138173052Y-90446774D01*
X138173057Y-90446780D01*
X138173058Y-90446782D01*
X138308751Y-90623622D01*
X138308757Y-90623629D01*
X138466370Y-90781242D01*
X138466376Y-90781247D01*
X138643226Y-90916948D01*
X138836274Y-91028405D01*
X138870812Y-91042711D01*
X139041074Y-91113236D01*
X139042219Y-91113710D01*
X139257537Y-91171404D01*
X139478543Y-91200500D01*
X139478550Y-91200500D01*
X139701450Y-91200500D01*
X139701457Y-91200500D01*
X139922463Y-91171404D01*
X140137781Y-91113710D01*
X140343726Y-91028405D01*
X140536774Y-90916948D01*
X140713624Y-90781247D01*
X140871247Y-90623624D01*
X141006948Y-90446774D01*
X141118405Y-90253726D01*
X141203710Y-90047781D01*
X141261404Y-89832463D01*
X141290500Y-89611457D01*
X141290500Y-89388549D01*
X142969500Y-89388549D01*
X142969500Y-89611450D01*
X142969501Y-89611466D01*
X142998594Y-89832452D01*
X142998595Y-89832457D01*
X142998596Y-89832463D01*
X143056290Y-90047780D01*
X143056293Y-90047790D01*
X143141593Y-90253722D01*
X143141595Y-90253726D01*
X143253052Y-90446774D01*
X143253057Y-90446780D01*
X143253058Y-90446782D01*
X143388751Y-90623622D01*
X143388757Y-90623629D01*
X143546370Y-90781242D01*
X143546376Y-90781247D01*
X143723226Y-90916948D01*
X143916274Y-91028405D01*
X143950812Y-91042711D01*
X144121074Y-91113236D01*
X144122219Y-91113710D01*
X144337537Y-91171404D01*
X144558543Y-91200500D01*
X144558550Y-91200500D01*
X144781450Y-91200500D01*
X144781457Y-91200500D01*
X145002463Y-91171404D01*
X145217781Y-91113710D01*
X145423726Y-91028405D01*
X145616774Y-90916948D01*
X145793624Y-90781247D01*
X145951247Y-90623624D01*
X146086948Y-90446774D01*
X146198405Y-90253726D01*
X146283710Y-90047781D01*
X146341404Y-89832463D01*
X146370500Y-89611457D01*
X146370500Y-89388543D01*
X146341404Y-89167537D01*
X146283710Y-88952219D01*
X146251947Y-88875539D01*
X146244479Y-88806071D01*
X146275754Y-88743591D01*
X146278828Y-88740406D01*
X149632416Y-85386819D01*
X149693739Y-85353334D01*
X149720097Y-85350500D01*
X153275639Y-85350500D01*
X153300908Y-85357920D01*
X153326982Y-85361629D01*
X153336860Y-85368476D01*
X153342678Y-85370185D01*
X153356701Y-85380666D01*
X153360124Y-85383623D01*
X153425965Y-85449464D01*
X153471756Y-85480061D01*
X153477557Y-85485072D01*
X153492502Y-85508251D01*
X153510190Y-85529415D01*
X153511167Y-85537198D01*
X153515420Y-85543793D01*
X153515461Y-85571373D01*
X153518899Y-85598740D01*
X153515512Y-85605818D01*
X153515524Y-85613663D01*
X153500648Y-85636886D01*
X153488744Y-85661768D01*
X153484176Y-85666587D01*
X150983555Y-88167209D01*
X150922232Y-88200694D01*
X150852540Y-88195710D01*
X150820388Y-88177904D01*
X150696782Y-88083058D01*
X150696780Y-88083057D01*
X150696774Y-88083052D01*
X150503726Y-87971595D01*
X150503724Y-87971594D01*
X150503722Y-87971593D01*
X150297790Y-87886293D01*
X150297783Y-87886291D01*
X150297781Y-87886290D01*
X150082463Y-87828596D01*
X150082457Y-87828595D01*
X150082452Y-87828594D01*
X149861466Y-87799501D01*
X149861463Y-87799500D01*
X149861457Y-87799500D01*
X149638543Y-87799500D01*
X149638537Y-87799500D01*
X149638533Y-87799501D01*
X149417547Y-87828594D01*
X149417540Y-87828595D01*
X149417537Y-87828596D01*
X149413432Y-87829696D01*
X149202219Y-87886290D01*
X149202209Y-87886293D01*
X148996277Y-87971593D01*
X148996273Y-87971595D01*
X148803226Y-88083052D01*
X148803217Y-88083058D01*
X148626377Y-88218751D01*
X148626370Y-88218757D01*
X148468757Y-88376370D01*
X148468751Y-88376377D01*
X148333058Y-88553217D01*
X148333052Y-88553226D01*
X148221595Y-88746273D01*
X148221593Y-88746277D01*
X148136293Y-88952209D01*
X148136290Y-88952219D01*
X148078597Y-89167534D01*
X148078594Y-89167547D01*
X148049501Y-89388533D01*
X148049500Y-89388549D01*
X148049500Y-89611450D01*
X148049501Y-89611466D01*
X148078594Y-89832452D01*
X148078595Y-89832457D01*
X148078596Y-89832463D01*
X148136290Y-90047780D01*
X148136293Y-90047790D01*
X148221593Y-90253722D01*
X148221595Y-90253726D01*
X148333052Y-90446774D01*
X148333057Y-90446780D01*
X148333058Y-90446782D01*
X148468751Y-90623622D01*
X148468757Y-90623629D01*
X148626370Y-90781242D01*
X148626376Y-90781247D01*
X148803226Y-90916948D01*
X148996274Y-91028405D01*
X149030812Y-91042711D01*
X149201074Y-91113236D01*
X149202219Y-91113710D01*
X149417537Y-91171404D01*
X149638543Y-91200500D01*
X149638550Y-91200500D01*
X149861450Y-91200500D01*
X149861457Y-91200500D01*
X150082463Y-91171404D01*
X150297781Y-91113710D01*
X150503726Y-91028405D01*
X150696774Y-90916948D01*
X150873624Y-90781247D01*
X151031247Y-90623624D01*
X151166948Y-90446774D01*
X151278405Y-90253726D01*
X151363710Y-90047781D01*
X151421404Y-89832463D01*
X151450500Y-89611457D01*
X151450500Y-89450097D01*
X151470185Y-89383058D01*
X151486819Y-89362416D01*
X155162416Y-85686819D01*
X155223739Y-85653334D01*
X155250097Y-85650500D01*
X155338693Y-85650500D01*
X155338694Y-85650499D01*
X155407133Y-85636886D01*
X155512658Y-85615896D01*
X155512661Y-85615894D01*
X155512666Y-85615894D01*
X155676547Y-85548013D01*
X155824035Y-85449464D01*
X155949464Y-85324035D01*
X156048013Y-85176547D01*
X156115894Y-85012666D01*
X156150500Y-84838691D01*
X156150500Y-84661309D01*
X156150500Y-84661306D01*
X156150499Y-84661304D01*
X156115896Y-84487341D01*
X156115893Y-84487332D01*
X156048016Y-84323459D01*
X156048009Y-84323446D01*
X155949464Y-84175965D01*
X155949461Y-84175961D01*
X155824038Y-84050538D01*
X155824034Y-84050535D01*
X155676553Y-83951990D01*
X155676540Y-83951983D01*
X155512667Y-83884106D01*
X155512658Y-83884103D01*
X155338694Y-83849500D01*
X155338691Y-83849500D01*
X155161309Y-83849500D01*
X155161306Y-83849500D01*
X154987341Y-83884103D01*
X154987332Y-83884106D01*
X154823459Y-83951983D01*
X154823446Y-83951990D01*
X154693891Y-84038557D01*
X154627213Y-84059435D01*
X154559833Y-84040950D01*
X154556109Y-84038557D01*
X154426553Y-83951990D01*
X154426540Y-83951983D01*
X154262667Y-83884106D01*
X154262658Y-83884103D01*
X154088694Y-83849500D01*
X154088691Y-83849500D01*
X153911309Y-83849500D01*
X153911306Y-83849500D01*
X153737341Y-83884103D01*
X153737332Y-83884106D01*
X153573459Y-83951983D01*
X153573446Y-83951990D01*
X153425966Y-84050534D01*
X153394643Y-84081857D01*
X153363318Y-84113182D01*
X153301998Y-84146666D01*
X153275639Y-84149500D01*
X149340940Y-84149500D01*
X149300019Y-84160464D01*
X149300019Y-84160465D01*
X149262751Y-84170451D01*
X149188214Y-84190423D01*
X149188209Y-84190426D01*
X149051290Y-84269475D01*
X149051282Y-84269481D01*
X148939478Y-84381286D01*
X145429592Y-87891171D01*
X145368269Y-87924656D01*
X145298577Y-87919672D01*
X145294459Y-87918051D01*
X145217781Y-87886290D01*
X145139019Y-87865186D01*
X145002463Y-87828596D01*
X145002457Y-87828595D01*
X145002452Y-87828594D01*
X144781466Y-87799501D01*
X144781463Y-87799500D01*
X144781457Y-87799500D01*
X144558543Y-87799500D01*
X144558537Y-87799500D01*
X144558533Y-87799501D01*
X144337547Y-87828594D01*
X144337540Y-87828595D01*
X144337537Y-87828596D01*
X144333432Y-87829696D01*
X144122219Y-87886290D01*
X144122209Y-87886293D01*
X143916277Y-87971593D01*
X143916273Y-87971595D01*
X143723226Y-88083052D01*
X143723217Y-88083058D01*
X143546377Y-88218751D01*
X143546370Y-88218757D01*
X143388757Y-88376370D01*
X143388751Y-88376377D01*
X143253058Y-88553217D01*
X143253052Y-88553226D01*
X143141595Y-88746273D01*
X143141593Y-88746277D01*
X143056293Y-88952209D01*
X143056290Y-88952219D01*
X142998597Y-89167534D01*
X142998594Y-89167547D01*
X142969501Y-89388533D01*
X142969500Y-89388549D01*
X141290500Y-89388549D01*
X141290500Y-89388543D01*
X141261404Y-89167537D01*
X141203710Y-88952219D01*
X141118405Y-88746274D01*
X141006948Y-88553226D01*
X140871247Y-88376376D01*
X140871242Y-88376370D01*
X140713629Y-88218757D01*
X140713622Y-88218751D01*
X140536782Y-88083058D01*
X140536780Y-88083057D01*
X140536774Y-88083052D01*
X140440250Y-88027323D01*
X140343727Y-87971595D01*
X140343725Y-87971594D01*
X140267046Y-87939832D01*
X140212643Y-87895991D01*
X140190579Y-87829696D01*
X140190500Y-87825272D01*
X140190500Y-79349154D01*
X142775001Y-79349154D01*
X142785319Y-79450152D01*
X142839546Y-79613800D01*
X142839551Y-79613811D01*
X142930052Y-79760534D01*
X142930055Y-79760538D01*
X143051961Y-79882444D01*
X143051965Y-79882447D01*
X143198688Y-79972948D01*
X143198699Y-79972953D01*
X143362347Y-80027180D01*
X143463352Y-80037499D01*
X143500000Y-80037499D01*
X144000000Y-80037499D01*
X144036640Y-80037499D01*
X144036654Y-80037498D01*
X144137652Y-80027180D01*
X144301300Y-79972953D01*
X144301311Y-79972948D01*
X144448034Y-79882447D01*
X144448038Y-79882444D01*
X144569944Y-79760538D01*
X144569947Y-79760534D01*
X144660448Y-79613811D01*
X144660453Y-79613800D01*
X144714680Y-79450152D01*
X144724999Y-79349154D01*
X144725000Y-79349141D01*
X144725000Y-79250000D01*
X144000000Y-79250000D01*
X144000000Y-80037499D01*
X143500000Y-80037499D01*
X143500000Y-79250000D01*
X142775001Y-79250000D01*
X142775001Y-79349154D01*
X140190500Y-79349154D01*
X140190500Y-78960096D01*
X140210185Y-78893057D01*
X140226814Y-78872420D01*
X142173418Y-76925815D01*
X142774500Y-76925815D01*
X142774500Y-77624169D01*
X142774501Y-77624187D01*
X142784825Y-77725252D01*
X142821109Y-77834749D01*
X142838395Y-77886914D01*
X142839092Y-77889015D01*
X142839093Y-77889018D01*
X142873395Y-77944629D01*
X142914239Y-78010849D01*
X142929661Y-78035851D01*
X142943982Y-78050172D01*
X142977467Y-78111495D01*
X142972483Y-78181187D01*
X142943985Y-78225532D01*
X142930052Y-78239465D01*
X142839551Y-78386188D01*
X142839546Y-78386199D01*
X142785319Y-78549847D01*
X142775000Y-78650845D01*
X142775000Y-78750000D01*
X144724999Y-78750000D01*
X144724999Y-78650860D01*
X144724998Y-78650845D01*
X144714680Y-78549847D01*
X144660453Y-78386199D01*
X144660448Y-78386188D01*
X144569947Y-78239465D01*
X144569944Y-78239461D01*
X144556017Y-78225534D01*
X144522532Y-78164211D01*
X144527516Y-78094519D01*
X144541391Y-78067786D01*
X144547882Y-78058307D01*
X144570340Y-78035850D01*
X144634470Y-77931878D01*
X144636145Y-77929433D01*
X144661009Y-77909132D01*
X144684862Y-77887678D01*
X144688222Y-77886914D01*
X144690267Y-77885245D01*
X144700904Y-77884032D01*
X144738452Y-77875500D01*
X145052265Y-77875500D01*
X145119304Y-77895185D01*
X145165059Y-77947989D01*
X145175003Y-78017147D01*
X145158998Y-78062620D01*
X145128254Y-78114605D01*
X145128254Y-78114606D01*
X145082402Y-78272426D01*
X145082401Y-78272432D01*
X145079500Y-78309298D01*
X145079500Y-80090701D01*
X145082401Y-80127567D01*
X145082402Y-80127573D01*
X145128254Y-80285393D01*
X145128255Y-80285396D01*
X145211917Y-80426862D01*
X145211923Y-80426870D01*
X145328129Y-80543076D01*
X145328132Y-80543078D01*
X145328135Y-80543081D01*
X145363620Y-80564066D01*
X145371371Y-80572367D01*
X145381703Y-80577086D01*
X145394787Y-80597445D01*
X145411304Y-80615135D01*
X145414313Y-80627829D01*
X145419477Y-80635864D01*
X145424500Y-80670799D01*
X145424500Y-80761548D01*
X145404815Y-80828587D01*
X145365597Y-80867086D01*
X145264153Y-80929657D01*
X145264149Y-80929660D01*
X145142161Y-81051648D01*
X145051593Y-81198481D01*
X145051592Y-81198484D01*
X144997326Y-81362247D01*
X144997326Y-81362248D01*
X144997325Y-81362248D01*
X144987000Y-81463315D01*
X144987000Y-82036669D01*
X144987001Y-82036687D01*
X144997325Y-82137752D01*
X145033609Y-82247249D01*
X145051592Y-82301516D01*
X145142160Y-82448350D01*
X145264150Y-82570340D01*
X145410984Y-82660908D01*
X145574747Y-82715174D01*
X145675823Y-82725500D01*
X146374176Y-82725499D01*
X146374184Y-82725498D01*
X146374187Y-82725498D01*
X146429530Y-82719844D01*
X146475253Y-82715174D01*
X146639016Y-82660908D01*
X146785850Y-82570340D01*
X146799819Y-82556371D01*
X146861142Y-82522886D01*
X146930834Y-82527870D01*
X146975181Y-82556371D01*
X146989150Y-82570340D01*
X147135984Y-82660908D01*
X147299747Y-82715174D01*
X147400823Y-82725500D01*
X148099176Y-82725499D01*
X148099184Y-82725498D01*
X148099187Y-82725498D01*
X148154530Y-82719844D01*
X148200253Y-82715174D01*
X148364016Y-82660908D01*
X148510850Y-82570340D01*
X148549819Y-82531371D01*
X148611142Y-82497886D01*
X148680834Y-82502870D01*
X148725181Y-82531371D01*
X148764150Y-82570340D01*
X148910984Y-82660908D01*
X149074747Y-82715174D01*
X149175823Y-82725500D01*
X149874176Y-82725499D01*
X149874184Y-82725498D01*
X149874187Y-82725498D01*
X149929530Y-82719844D01*
X149975253Y-82715174D01*
X150139016Y-82660908D01*
X150285850Y-82570340D01*
X150299819Y-82556371D01*
X150361142Y-82522886D01*
X150430834Y-82527870D01*
X150475181Y-82556371D01*
X150489150Y-82570340D01*
X150635984Y-82660908D01*
X150799747Y-82715174D01*
X150900823Y-82725500D01*
X151599176Y-82725499D01*
X151599184Y-82725498D01*
X151599187Y-82725498D01*
X151654530Y-82719844D01*
X151700253Y-82715174D01*
X151864016Y-82660908D01*
X152010850Y-82570340D01*
X152132840Y-82448350D01*
X152223408Y-82301516D01*
X152277674Y-82137753D01*
X152288000Y-82036677D01*
X152287999Y-81463324D01*
X152277674Y-81362247D01*
X152223408Y-81198484D01*
X152132840Y-81051650D01*
X152010850Y-80929660D01*
X151970930Y-80905037D01*
X151924208Y-80853091D01*
X151912985Y-80784128D01*
X151940829Y-80720046D01*
X151998897Y-80681190D01*
X152036029Y-80675500D01*
X152445686Y-80675500D01*
X152445694Y-80675500D01*
X152482569Y-80672598D01*
X152482571Y-80672597D01*
X152482573Y-80672597D01*
X152540501Y-80655767D01*
X152640398Y-80626744D01*
X152781865Y-80543081D01*
X152781870Y-80543075D01*
X152788031Y-80538298D01*
X152789933Y-80540750D01*
X152838579Y-80514155D01*
X152908274Y-80519104D01*
X152940695Y-80539940D01*
X152941969Y-80538298D01*
X152948132Y-80543078D01*
X152948135Y-80543081D01*
X153089602Y-80626744D01*
X153120497Y-80635720D01*
X153247426Y-80672597D01*
X153247429Y-80672597D01*
X153247431Y-80672598D01*
X153284306Y-80675500D01*
X153284314Y-80675500D01*
X153715686Y-80675500D01*
X153715694Y-80675500D01*
X153752569Y-80672598D01*
X153752571Y-80672597D01*
X153752573Y-80672597D01*
X153810501Y-80655767D01*
X153910398Y-80626744D01*
X154051865Y-80543081D01*
X154051870Y-80543075D01*
X154058031Y-80538298D01*
X154059933Y-80540750D01*
X154108579Y-80514155D01*
X154178274Y-80519104D01*
X154210695Y-80539940D01*
X154211969Y-80538298D01*
X154218132Y-80543078D01*
X154218135Y-80543081D01*
X154359602Y-80626744D01*
X154390497Y-80635720D01*
X154517426Y-80672597D01*
X154517429Y-80672597D01*
X154517431Y-80672598D01*
X154554306Y-80675500D01*
X154554314Y-80675500D01*
X154985686Y-80675500D01*
X154985694Y-80675500D01*
X155022569Y-80672598D01*
X155022571Y-80672597D01*
X155022573Y-80672597D01*
X155080501Y-80655767D01*
X155180398Y-80626744D01*
X155321865Y-80543081D01*
X155438081Y-80426865D01*
X155521744Y-80285398D01*
X155567598Y-80127569D01*
X155570500Y-80090694D01*
X155570500Y-79324154D01*
X156775001Y-79324154D01*
X156785319Y-79425152D01*
X156839546Y-79588800D01*
X156839551Y-79588811D01*
X156930052Y-79735534D01*
X156930055Y-79735538D01*
X157051961Y-79857444D01*
X157051965Y-79857447D01*
X157198688Y-79947948D01*
X157198699Y-79947953D01*
X157362347Y-80002180D01*
X157463352Y-80012499D01*
X157500000Y-80012499D01*
X158000000Y-80012499D01*
X158036640Y-80012499D01*
X158036654Y-80012498D01*
X158137652Y-80002180D01*
X158301300Y-79947953D01*
X158301311Y-79947948D01*
X158448034Y-79857447D01*
X158448038Y-79857444D01*
X158569944Y-79735538D01*
X158569947Y-79735534D01*
X158660448Y-79588811D01*
X158660453Y-79588800D01*
X158714680Y-79425152D01*
X158724999Y-79324154D01*
X158725000Y-79324141D01*
X158725000Y-79225000D01*
X158000000Y-79225000D01*
X158000000Y-80012499D01*
X157500000Y-80012499D01*
X157500000Y-79225000D01*
X156775001Y-79225000D01*
X156775001Y-79324154D01*
X155570500Y-79324154D01*
X155570500Y-78309306D01*
X155567598Y-78272431D01*
X155558020Y-78239465D01*
X155521745Y-78114606D01*
X155521745Y-78114605D01*
X155521744Y-78114602D01*
X155495082Y-78069519D01*
X155476218Y-78037620D01*
X155459035Y-77969896D01*
X155481195Y-77903634D01*
X155535662Y-77859871D01*
X155582950Y-77850500D01*
X156761548Y-77850500D01*
X156768477Y-77852534D01*
X156775592Y-77851298D01*
X156801554Y-77862247D01*
X156828587Y-77870185D01*
X156834890Y-77876306D01*
X156839971Y-77878449D01*
X156856343Y-77897139D01*
X156863855Y-77904434D01*
X156865535Y-77906888D01*
X156929660Y-78010850D01*
X156952112Y-78033302D01*
X156958608Y-78042787D01*
X156966011Y-78065516D01*
X156977467Y-78086495D01*
X156976634Y-78098129D01*
X156980248Y-78109221D01*
X156974188Y-78132343D01*
X156972483Y-78156187D01*
X156964810Y-78168126D01*
X156962535Y-78176808D01*
X156954463Y-78184227D01*
X156943985Y-78200532D01*
X156930052Y-78214465D01*
X156839551Y-78361188D01*
X156839546Y-78361199D01*
X156785319Y-78524847D01*
X156775000Y-78625845D01*
X156775000Y-78725000D01*
X158724999Y-78725000D01*
X158724999Y-78625860D01*
X158724998Y-78625845D01*
X158714680Y-78524847D01*
X158660453Y-78361199D01*
X158660448Y-78361188D01*
X158569947Y-78214465D01*
X158569944Y-78214461D01*
X158556017Y-78200534D01*
X158522532Y-78139211D01*
X158527516Y-78069519D01*
X158556017Y-78025172D01*
X158570340Y-78010850D01*
X158660908Y-77864016D01*
X158715174Y-77700253D01*
X158725500Y-77599177D01*
X158725499Y-76900824D01*
X158715174Y-76799747D01*
X158660908Y-76635984D01*
X158570340Y-76489150D01*
X158448350Y-76367160D01*
X158342049Y-76301593D01*
X158301518Y-76276593D01*
X158301513Y-76276591D01*
X158253376Y-76260640D01*
X158137753Y-76222326D01*
X158137751Y-76222325D01*
X158036678Y-76212000D01*
X157463330Y-76212000D01*
X157463312Y-76212001D01*
X157362247Y-76222325D01*
X157198484Y-76276592D01*
X157198481Y-76276593D01*
X157051648Y-76367161D01*
X156929660Y-76489149D01*
X156929657Y-76489153D01*
X156867086Y-76590597D01*
X156815138Y-76637322D01*
X156761548Y-76649500D01*
X153291671Y-76649500D01*
X153291655Y-76649499D01*
X153284059Y-76649499D01*
X153125944Y-76649499D01*
X153049580Y-76669961D01*
X152973215Y-76690423D01*
X152973210Y-76690426D01*
X152836291Y-76769475D01*
X152836283Y-76769481D01*
X151861286Y-77744479D01*
X151861266Y-77744499D01*
X151859062Y-77746702D01*
X151826176Y-77769048D01*
X151826316Y-77769285D01*
X151822551Y-77771511D01*
X151820658Y-77772798D01*
X151819605Y-77773253D01*
X151678138Y-77856916D01*
X151671969Y-77861702D01*
X151670072Y-77859256D01*
X151621358Y-77885857D01*
X151551666Y-77880873D01*
X151519296Y-77860069D01*
X151518031Y-77861702D01*
X151511862Y-77856917D01*
X151370396Y-77773255D01*
X151370393Y-77773254D01*
X151212573Y-77727402D01*
X151212567Y-77727401D01*
X151175701Y-77724500D01*
X151175694Y-77724500D01*
X150744306Y-77724500D01*
X150744298Y-77724500D01*
X150707432Y-77727401D01*
X150707426Y-77727402D01*
X150549606Y-77773254D01*
X150549603Y-77773255D01*
X150408137Y-77856917D01*
X150401969Y-77861702D01*
X150400072Y-77859256D01*
X150351358Y-77885857D01*
X150281666Y-77880873D01*
X150249296Y-77860069D01*
X150248031Y-77861702D01*
X150241862Y-77856917D01*
X150100396Y-77773255D01*
X150100393Y-77773254D01*
X149942573Y-77727402D01*
X149942567Y-77727401D01*
X149905701Y-77724500D01*
X149905694Y-77724500D01*
X149474306Y-77724500D01*
X149474298Y-77724500D01*
X149437432Y-77727401D01*
X149437426Y-77727402D01*
X149279606Y-77773254D01*
X149279603Y-77773255D01*
X149138137Y-77856917D01*
X149131969Y-77861702D01*
X149130072Y-77859256D01*
X149081358Y-77885857D01*
X149011666Y-77880873D01*
X148979296Y-77860069D01*
X148978031Y-77861702D01*
X148971862Y-77856917D01*
X148830396Y-77773255D01*
X148830393Y-77773254D01*
X148672573Y-77727402D01*
X148672567Y-77727401D01*
X148635701Y-77724500D01*
X148635694Y-77724500D01*
X148204306Y-77724500D01*
X148204298Y-77724500D01*
X148167432Y-77727401D01*
X148167426Y-77727402D01*
X148009606Y-77773254D01*
X148009603Y-77773255D01*
X147868137Y-77856917D01*
X147861969Y-77861702D01*
X147860072Y-77859256D01*
X147811358Y-77885857D01*
X147741666Y-77880873D01*
X147721269Y-77871060D01*
X147708139Y-77863193D01*
X147701865Y-77856919D01*
X147560398Y-77773256D01*
X147555799Y-77771919D01*
X147544869Y-77765371D01*
X147538898Y-77758902D01*
X147520919Y-77746683D01*
X147514397Y-77740161D01*
X147514374Y-77740140D01*
X146687589Y-76913355D01*
X146687587Y-76913352D01*
X146568716Y-76794481D01*
X146568715Y-76794480D01*
X146481903Y-76744360D01*
X146481903Y-76744359D01*
X146481899Y-76744358D01*
X146431784Y-76715423D01*
X146279056Y-76674499D01*
X146120942Y-76674499D01*
X146113346Y-76674499D01*
X146113330Y-76674500D01*
X144738452Y-76674500D01*
X144671413Y-76654815D01*
X144632914Y-76615597D01*
X144570342Y-76514153D01*
X144570339Y-76514149D01*
X144448351Y-76392161D01*
X144448350Y-76392160D01*
X144301516Y-76301592D01*
X144137753Y-76247326D01*
X144137751Y-76247325D01*
X144036678Y-76237000D01*
X143463330Y-76237000D01*
X143463312Y-76237001D01*
X143362247Y-76247325D01*
X143198484Y-76301592D01*
X143198481Y-76301593D01*
X143051650Y-76392160D01*
X143038324Y-76405486D01*
X143021412Y-76414719D01*
X143007468Y-76428016D01*
X142991380Y-76431117D01*
X142977000Y-76438969D01*
X142957780Y-76437593D01*
X142944134Y-76440224D01*
X142945514Y-76443922D01*
X142930662Y-76512195D01*
X142927369Y-76517865D01*
X142839093Y-76660981D01*
X142839091Y-76660986D01*
X142811719Y-76743588D01*
X142784826Y-76824747D01*
X142784826Y-76824748D01*
X142784825Y-76824748D01*
X142774500Y-76925815D01*
X142173418Y-76925815D01*
X142721006Y-76378227D01*
X142721011Y-76378224D01*
X142734149Y-76365087D01*
X142795472Y-76331602D01*
X142829723Y-76334051D01*
X142826961Y-76326645D01*
X142831057Y-76307816D01*
X142830140Y-76288571D01*
X142841320Y-76260640D01*
X142841814Y-76258372D01*
X142843189Y-76255921D01*
X142893139Y-76169404D01*
X142922077Y-76119285D01*
X142963000Y-75966557D01*
X142963000Y-75808443D01*
X142963000Y-75238451D01*
X142982685Y-75171412D01*
X143021902Y-75132913D01*
X143123350Y-75070340D01*
X143245340Y-74948350D01*
X143269362Y-74909404D01*
X143321310Y-74862679D01*
X143374901Y-74850500D01*
X144955500Y-74850500D01*
X145022539Y-74870185D01*
X145068294Y-74922989D01*
X145079500Y-74974500D01*
X145079500Y-75140701D01*
X145082401Y-75177567D01*
X145082402Y-75177573D01*
X145128254Y-75335393D01*
X145128255Y-75335396D01*
X145211917Y-75476862D01*
X145211923Y-75476870D01*
X145328129Y-75593076D01*
X145328133Y-75593079D01*
X145328135Y-75593081D01*
X145469602Y-75676744D01*
X145511224Y-75688836D01*
X145627426Y-75722597D01*
X145627429Y-75722597D01*
X145627431Y-75722598D01*
X145664306Y-75725500D01*
X145664314Y-75725500D01*
X146095686Y-75725500D01*
X146095694Y-75725500D01*
X146132569Y-75722598D01*
X146132571Y-75722597D01*
X146132573Y-75722597D01*
X146234448Y-75692999D01*
X146290398Y-75676744D01*
X146431865Y-75593081D01*
X146431870Y-75593076D01*
X146438026Y-75588301D01*
X146439839Y-75590638D01*
X146488949Y-75563798D01*
X146558643Y-75568756D01*
X146590996Y-75589551D01*
X146592278Y-75587900D01*
X146598447Y-75592685D01*
X146739801Y-75676281D01*
X146897514Y-75722100D01*
X146897511Y-75722100D01*
X146899998Y-75722295D01*
X146900000Y-75722295D01*
X146900000Y-72777703D01*
X146897503Y-72777900D01*
X146739806Y-72823716D01*
X146739803Y-72823717D01*
X146598449Y-72907313D01*
X146592283Y-72912097D01*
X146590389Y-72909655D01*
X146541580Y-72936239D01*
X146471894Y-72931179D01*
X146439227Y-72910159D01*
X146438031Y-72911702D01*
X146431862Y-72906917D01*
X146291715Y-72824035D01*
X146290398Y-72823256D01*
X146290397Y-72823255D01*
X146290396Y-72823255D01*
X146290393Y-72823254D01*
X146132573Y-72777402D01*
X146132567Y-72777401D01*
X146095701Y-72774500D01*
X146095694Y-72774500D01*
X145664306Y-72774500D01*
X145664298Y-72774500D01*
X145627432Y-72777401D01*
X145627426Y-72777402D01*
X145469606Y-72823254D01*
X145469603Y-72823255D01*
X145328137Y-72906917D01*
X145328129Y-72906923D01*
X145211923Y-73023129D01*
X145211917Y-73023137D01*
X145128255Y-73164603D01*
X145128254Y-73164606D01*
X145082402Y-73322426D01*
X145082401Y-73322432D01*
X145079500Y-73359298D01*
X145079500Y-73525500D01*
X145059815Y-73592539D01*
X145007011Y-73638294D01*
X144955500Y-73649500D01*
X143374901Y-73649500D01*
X143307862Y-73629815D01*
X143269362Y-73590596D01*
X143245340Y-73551650D01*
X143123351Y-73429661D01*
X143123350Y-73429660D01*
X143032129Y-73373395D01*
X142976518Y-73339093D01*
X142976513Y-73339091D01*
X142975069Y-73338612D01*
X142812753Y-73284826D01*
X142812751Y-73284825D01*
X142711678Y-73274500D01*
X142013330Y-73274500D01*
X142013312Y-73274501D01*
X141912247Y-73284825D01*
X141748484Y-73339092D01*
X141748481Y-73339093D01*
X141601648Y-73429661D01*
X141587325Y-73443984D01*
X141526001Y-73477468D01*
X141456309Y-73472482D01*
X141411965Y-73443982D01*
X141398038Y-73430055D01*
X141398034Y-73430052D01*
X141251311Y-73339551D01*
X141251300Y-73339546D01*
X141087652Y-73285319D01*
X140986654Y-73275000D01*
X140887500Y-73275000D01*
X140887500Y-75224999D01*
X140986640Y-75224999D01*
X140986654Y-75224998D01*
X141087652Y-75214680D01*
X141251300Y-75160453D01*
X141251311Y-75160448D01*
X141398035Y-75069947D01*
X141411960Y-75056021D01*
X141473282Y-75022533D01*
X141542973Y-75027514D01*
X141569712Y-75041391D01*
X141579196Y-75047886D01*
X141601650Y-75070340D01*
X141705626Y-75134473D01*
X141708066Y-75136144D01*
X141728366Y-75161007D01*
X141749821Y-75184860D01*
X141750584Y-75188218D01*
X141752255Y-75190265D01*
X141753468Y-75200909D01*
X141762000Y-75238451D01*
X141762000Y-75587402D01*
X141742315Y-75654441D01*
X141725681Y-75675083D01*
X139109481Y-78291282D01*
X139109479Y-78291285D01*
X139059361Y-78378094D01*
X139059359Y-78378096D01*
X139030425Y-78428209D01*
X139030424Y-78428210D01*
X139030423Y-78428215D01*
X138989499Y-78580943D01*
X138989499Y-78580945D01*
X138989499Y-78749046D01*
X138989500Y-78749059D01*
X138989500Y-87825272D01*
X138969815Y-87892311D01*
X138917011Y-87938066D01*
X138912954Y-87939832D01*
X138836274Y-87971594D01*
X138836272Y-87971595D01*
X138643226Y-88083052D01*
X138643217Y-88083058D01*
X138466377Y-88218751D01*
X138466370Y-88218757D01*
X138308757Y-88376370D01*
X138308751Y-88376377D01*
X138173058Y-88553217D01*
X138173052Y-88553226D01*
X138061595Y-88746273D01*
X138061593Y-88746277D01*
X137976293Y-88952209D01*
X137976290Y-88952219D01*
X137918597Y-89167534D01*
X137918594Y-89167547D01*
X137889501Y-89388533D01*
X137889500Y-89388549D01*
X136209997Y-89388549D01*
X136180914Y-89167645D01*
X136180911Y-89167632D01*
X136123236Y-88952381D01*
X136037954Y-88746497D01*
X136037949Y-88746485D01*
X135926533Y-88553507D01*
X135875956Y-88487595D01*
X135875955Y-88487595D01*
X135225846Y-89137704D01*
X135218951Y-89121058D01*
X135131401Y-88990030D01*
X135019970Y-88878599D01*
X134888942Y-88791049D01*
X134872293Y-88784152D01*
X135522403Y-88134043D01*
X135522403Y-88134040D01*
X135456504Y-88083473D01*
X135456491Y-88083464D01*
X135263520Y-87972054D01*
X135263502Y-87972045D01*
X135057618Y-87886763D01*
X134842367Y-87829088D01*
X134842354Y-87829085D01*
X134621425Y-87800000D01*
X134398575Y-87800000D01*
X134177645Y-87829085D01*
X134177632Y-87829088D01*
X133962381Y-87886763D01*
X133756497Y-87972045D01*
X133756479Y-87972054D01*
X133563511Y-88083462D01*
X133497595Y-88134042D01*
X134147706Y-88784152D01*
X134131058Y-88791049D01*
X134000030Y-88878599D01*
X133888599Y-88990030D01*
X133801049Y-89121058D01*
X133794153Y-89137706D01*
X133144042Y-88487595D01*
X133093462Y-88553511D01*
X132982054Y-88746479D01*
X132982045Y-88746497D01*
X132896763Y-88952381D01*
X132839088Y-89167632D01*
X132839085Y-89167645D01*
X132810000Y-89388575D01*
X131130500Y-89388575D01*
X131130500Y-88499992D01*
X131119999Y-88397203D01*
X131064814Y-88230666D01*
X130972711Y-88081345D01*
X130848655Y-87957289D01*
X130848651Y-87957286D01*
X130699337Y-87865187D01*
X130699335Y-87865186D01*
X130592232Y-87829696D01*
X130532797Y-87810001D01*
X130532795Y-87810000D01*
X130532794Y-87810000D01*
X130441897Y-87800714D01*
X130377205Y-87774317D01*
X130337054Y-87717136D01*
X130330500Y-87677356D01*
X130330500Y-75744361D01*
X130350185Y-75677322D01*
X130366819Y-75656680D01*
X131486845Y-74536654D01*
X139600001Y-74536654D01*
X139610319Y-74637652D01*
X139664546Y-74801300D01*
X139664551Y-74801311D01*
X139755052Y-74948034D01*
X139755055Y-74948038D01*
X139876961Y-75069944D01*
X139876965Y-75069947D01*
X140023688Y-75160448D01*
X140023699Y-75160453D01*
X140187347Y-75214680D01*
X140288351Y-75224999D01*
X140387500Y-75224998D01*
X140387500Y-74500000D01*
X139600001Y-74500000D01*
X139600001Y-74536654D01*
X131486845Y-74536654D01*
X132060154Y-73963345D01*
X139600000Y-73963345D01*
X139600000Y-74000000D01*
X140387500Y-74000000D01*
X140387500Y-73274999D01*
X140288360Y-73275000D01*
X140288344Y-73275001D01*
X140187347Y-73285319D01*
X140023699Y-73339546D01*
X140023688Y-73339551D01*
X139876965Y-73430052D01*
X139876961Y-73430055D01*
X139755055Y-73551961D01*
X139755052Y-73551965D01*
X139664551Y-73698688D01*
X139664546Y-73698699D01*
X139610319Y-73862347D01*
X139600000Y-73963345D01*
X132060154Y-73963345D01*
X136564460Y-69459039D01*
X136564463Y-69459036D01*
X136603576Y-69400500D01*
X136663013Y-69311547D01*
X136730894Y-69147666D01*
X136731563Y-69144306D01*
X136765499Y-68973695D01*
X136765500Y-68973693D01*
X136765500Y-61830047D01*
X136785185Y-61763008D01*
X136801819Y-61742366D01*
X136819500Y-61724685D01*
X136856966Y-61687219D01*
X136856968Y-61687215D01*
X136856971Y-61687213D01*
X136911655Y-61611945D01*
X136977287Y-61521610D01*
X137070220Y-61339219D01*
X137132069Y-61148868D01*
X137171507Y-61091193D01*
X137235866Y-61063995D01*
X137304712Y-61075910D01*
X137356188Y-61123154D01*
X137367931Y-61148868D01*
X137429781Y-61339223D01*
X137522715Y-61521613D01*
X137643028Y-61687213D01*
X137787786Y-61831971D01*
X137935815Y-61939518D01*
X137953390Y-61952287D01*
X138041517Y-61997190D01*
X138135776Y-62045218D01*
X138135778Y-62045218D01*
X138135781Y-62045220D01*
X138240137Y-62079127D01*
X138330465Y-62108477D01*
X138431557Y-62124488D01*
X138532648Y-62140500D01*
X138532649Y-62140500D01*
X138737351Y-62140500D01*
X138737352Y-62140500D01*
X138939534Y-62108477D01*
X139134219Y-62045220D01*
X139316610Y-61952287D01*
X139424932Y-61873587D01*
X139482213Y-61831971D01*
X139482215Y-61831968D01*
X139482219Y-61831966D01*
X139626966Y-61687219D01*
X139626968Y-61687215D01*
X139626971Y-61687213D01*
X139681655Y-61611945D01*
X139747287Y-61521610D01*
X139840220Y-61339219D01*
X139902069Y-61148868D01*
X139941507Y-61091193D01*
X140005866Y-61063995D01*
X140074712Y-61075910D01*
X140126188Y-61123154D01*
X140137931Y-61148868D01*
X140199781Y-61339223D01*
X140292715Y-61521613D01*
X140413028Y-61687213D01*
X140557786Y-61831971D01*
X140705815Y-61939518D01*
X140723390Y-61952287D01*
X140811517Y-61997190D01*
X140905776Y-62045218D01*
X140905778Y-62045218D01*
X140905781Y-62045220D01*
X141010137Y-62079127D01*
X141100465Y-62108477D01*
X141201557Y-62124488D01*
X141302648Y-62140500D01*
X141302649Y-62140500D01*
X141507351Y-62140500D01*
X141507352Y-62140500D01*
X141709534Y-62108477D01*
X141904219Y-62045220D01*
X142086610Y-61952287D01*
X142194932Y-61873587D01*
X142252213Y-61831971D01*
X142252215Y-61831968D01*
X142252219Y-61831966D01*
X142396966Y-61687219D01*
X142396968Y-61687215D01*
X142396971Y-61687213D01*
X142451655Y-61611945D01*
X142517287Y-61521610D01*
X142610220Y-61339219D01*
X142672069Y-61148868D01*
X142711507Y-61091193D01*
X142775866Y-61063995D01*
X142844712Y-61075910D01*
X142896188Y-61123154D01*
X142907931Y-61148868D01*
X142969781Y-61339223D01*
X143062715Y-61521613D01*
X143183028Y-61687213D01*
X143327786Y-61831971D01*
X143475815Y-61939518D01*
X143493390Y-61952287D01*
X143581517Y-61997190D01*
X143675776Y-62045218D01*
X143675778Y-62045218D01*
X143675781Y-62045220D01*
X143780137Y-62079127D01*
X143870465Y-62108477D01*
X143971557Y-62124488D01*
X144072648Y-62140500D01*
X144072649Y-62140500D01*
X144277351Y-62140500D01*
X144277352Y-62140500D01*
X144479534Y-62108477D01*
X144674219Y-62045220D01*
X144856610Y-61952287D01*
X144964932Y-61873587D01*
X145022213Y-61831971D01*
X145022215Y-61831968D01*
X145022219Y-61831966D01*
X145166966Y-61687219D01*
X145166968Y-61687215D01*
X145166971Y-61687213D01*
X145221655Y-61611945D01*
X145287287Y-61521610D01*
X145380220Y-61339219D01*
X145442069Y-61148868D01*
X145481507Y-61091193D01*
X145545866Y-61063995D01*
X145614712Y-61075910D01*
X145666188Y-61123154D01*
X145677931Y-61148868D01*
X145739781Y-61339223D01*
X145832715Y-61521613D01*
X145953028Y-61687213D01*
X146097786Y-61831971D01*
X146245815Y-61939518D01*
X146263390Y-61952287D01*
X146351517Y-61997190D01*
X146445776Y-62045218D01*
X146445778Y-62045218D01*
X146445781Y-62045220D01*
X146550137Y-62079127D01*
X146640465Y-62108477D01*
X146741557Y-62124488D01*
X146842648Y-62140500D01*
X146842649Y-62140500D01*
X147047351Y-62140500D01*
X147047352Y-62140500D01*
X147249534Y-62108477D01*
X147444219Y-62045220D01*
X147626610Y-61952287D01*
X147677109Y-61915597D01*
X147702615Y-61897067D01*
X147768421Y-61873587D01*
X147836475Y-61889413D01*
X147885170Y-61939518D01*
X147899500Y-61997385D01*
X147899500Y-69037598D01*
X147879815Y-69104637D01*
X147840598Y-69143136D01*
X147801650Y-69167159D01*
X147679661Y-69289148D01*
X147589093Y-69435981D01*
X147589091Y-69435986D01*
X147581453Y-69459036D01*
X147534826Y-69599747D01*
X147534826Y-69599748D01*
X147534825Y-69599748D01*
X147524500Y-69700815D01*
X147524500Y-70299169D01*
X147524501Y-70299187D01*
X147534825Y-70400252D01*
X147589092Y-70564015D01*
X147589093Y-70564018D01*
X147679661Y-70710851D01*
X147793629Y-70824819D01*
X147827114Y-70886142D01*
X147822130Y-70955834D01*
X147793629Y-71000181D01*
X147679661Y-71114148D01*
X147589093Y-71260981D01*
X147589092Y-71260984D01*
X147534826Y-71424747D01*
X147534826Y-71424748D01*
X147534825Y-71424748D01*
X147524500Y-71525815D01*
X147524500Y-72124169D01*
X147524501Y-72124187D01*
X147534825Y-72225252D01*
X147571109Y-72334749D01*
X147589092Y-72389016D01*
X147650544Y-72488646D01*
X147679661Y-72535851D01*
X147783181Y-72639371D01*
X147797884Y-72666298D01*
X147814477Y-72692117D01*
X147815368Y-72698317D01*
X147816666Y-72700694D01*
X147819500Y-72727052D01*
X147819500Y-72759673D01*
X147799815Y-72826712D01*
X147747011Y-72872467D01*
X147677853Y-72882411D01*
X147632380Y-72866406D01*
X147560194Y-72823716D01*
X147402494Y-72777900D01*
X147402497Y-72777900D01*
X147400000Y-72777703D01*
X147400000Y-75722295D01*
X147400001Y-75722295D01*
X147402486Y-75722100D01*
X147560198Y-75676281D01*
X147701550Y-75592686D01*
X147707717Y-75587903D01*
X147709630Y-75590369D01*
X147758222Y-75563802D01*
X147827917Y-75568749D01*
X147860762Y-75589853D01*
X147861969Y-75588298D01*
X147868132Y-75593078D01*
X147868135Y-75593081D01*
X148009602Y-75676744D01*
X148051224Y-75688836D01*
X148167426Y-75722597D01*
X148167429Y-75722597D01*
X148167431Y-75722598D01*
X148204306Y-75725500D01*
X148204314Y-75725500D01*
X148635686Y-75725500D01*
X148635694Y-75725500D01*
X148672569Y-75722598D01*
X148672571Y-75722597D01*
X148672573Y-75722597D01*
X148774448Y-75692999D01*
X148830398Y-75676744D01*
X148971865Y-75593081D01*
X148971870Y-75593075D01*
X148978031Y-75588298D01*
X148979933Y-75590750D01*
X149028579Y-75564155D01*
X149098274Y-75569104D01*
X149130695Y-75589940D01*
X149131969Y-75588298D01*
X149138132Y-75593078D01*
X149138135Y-75593081D01*
X149279602Y-75676744D01*
X149321224Y-75688836D01*
X149437426Y-75722597D01*
X149437429Y-75722597D01*
X149437431Y-75722598D01*
X149474306Y-75725500D01*
X149474314Y-75725500D01*
X149905686Y-75725500D01*
X149905694Y-75725500D01*
X149942569Y-75722598D01*
X149942571Y-75722597D01*
X149942573Y-75722597D01*
X150044448Y-75692999D01*
X150100398Y-75676744D01*
X150241865Y-75593081D01*
X150241870Y-75593075D01*
X150248031Y-75588298D01*
X150249933Y-75590750D01*
X150298579Y-75564155D01*
X150368274Y-75569104D01*
X150400695Y-75589940D01*
X150401969Y-75588298D01*
X150408132Y-75593078D01*
X150408135Y-75593081D01*
X150549602Y-75676744D01*
X150591224Y-75688836D01*
X150707426Y-75722597D01*
X150707429Y-75722597D01*
X150707431Y-75722598D01*
X150744306Y-75725500D01*
X150744314Y-75725500D01*
X151175686Y-75725500D01*
X151175694Y-75725500D01*
X151212569Y-75722598D01*
X151212571Y-75722597D01*
X151212573Y-75722597D01*
X151314448Y-75692999D01*
X151370398Y-75676744D01*
X151511865Y-75593081D01*
X151511870Y-75593075D01*
X151518031Y-75588298D01*
X151519933Y-75590750D01*
X151568579Y-75564155D01*
X151638274Y-75569104D01*
X151670695Y-75589940D01*
X151671969Y-75588298D01*
X151678132Y-75593078D01*
X151678135Y-75593081D01*
X151819602Y-75676744D01*
X151861224Y-75688836D01*
X151977426Y-75722597D01*
X151977429Y-75722597D01*
X151977431Y-75722598D01*
X152014306Y-75725500D01*
X152014314Y-75725500D01*
X152445686Y-75725500D01*
X152445694Y-75725500D01*
X152482569Y-75722598D01*
X152482571Y-75722597D01*
X152482573Y-75722597D01*
X152584448Y-75692999D01*
X152640398Y-75676744D01*
X152781865Y-75593081D01*
X152781870Y-75593075D01*
X152788031Y-75588298D01*
X152789933Y-75590750D01*
X152838579Y-75564155D01*
X152908274Y-75569104D01*
X152940695Y-75589940D01*
X152941969Y-75588298D01*
X152948132Y-75593078D01*
X152948135Y-75593081D01*
X153089602Y-75676744D01*
X153131224Y-75688836D01*
X153247426Y-75722597D01*
X153247429Y-75722597D01*
X153247431Y-75722598D01*
X153284306Y-75725500D01*
X153284314Y-75725500D01*
X153715686Y-75725500D01*
X153715694Y-75725500D01*
X153752569Y-75722598D01*
X153752571Y-75722597D01*
X153752573Y-75722597D01*
X153854448Y-75692999D01*
X153910398Y-75676744D01*
X154051865Y-75593081D01*
X154051870Y-75593075D01*
X154058031Y-75588298D01*
X154059933Y-75590750D01*
X154108579Y-75564155D01*
X154178274Y-75569104D01*
X154210695Y-75589940D01*
X154211969Y-75588298D01*
X154218132Y-75593078D01*
X154218135Y-75593081D01*
X154359602Y-75676744D01*
X154401224Y-75688836D01*
X154517426Y-75722597D01*
X154517429Y-75722597D01*
X154517431Y-75722598D01*
X154554306Y-75725500D01*
X154554314Y-75725500D01*
X154985686Y-75725500D01*
X154985694Y-75725500D01*
X155022569Y-75722598D01*
X155022571Y-75722597D01*
X155022573Y-75722597D01*
X155124448Y-75692999D01*
X155180398Y-75676744D01*
X155321865Y-75593081D01*
X155438081Y-75476865D01*
X155521744Y-75335398D01*
X155560817Y-75200909D01*
X155567597Y-75177573D01*
X155567598Y-75177567D01*
X155570500Y-75140694D01*
X155570500Y-73359306D01*
X155567598Y-73322431D01*
X155556672Y-73284825D01*
X155539124Y-73224423D01*
X155539323Y-73154554D01*
X155577265Y-73095884D01*
X155610743Y-73075269D01*
X155676547Y-73048013D01*
X155824035Y-72949464D01*
X155949464Y-72824035D01*
X156048013Y-72676547D01*
X156115894Y-72512666D01*
X156150500Y-72338691D01*
X156150500Y-72161309D01*
X156150500Y-72161306D01*
X156150499Y-72161304D01*
X156115896Y-71987341D01*
X156115893Y-71987332D01*
X156048016Y-71823459D01*
X156048009Y-71823446D01*
X155949464Y-71675965D01*
X155949461Y-71675961D01*
X155824038Y-71550538D01*
X155824034Y-71550535D01*
X155676553Y-71451990D01*
X155676540Y-71451983D01*
X155512667Y-71384106D01*
X155512658Y-71384103D01*
X155338694Y-71349500D01*
X155338691Y-71349500D01*
X155161309Y-71349500D01*
X155161306Y-71349500D01*
X154987341Y-71384103D01*
X154987332Y-71384106D01*
X154823459Y-71451983D01*
X154823446Y-71451990D01*
X154675966Y-71550534D01*
X154644643Y-71581857D01*
X154613318Y-71613182D01*
X154551998Y-71646666D01*
X154525639Y-71649500D01*
X153334058Y-71649500D01*
X153175943Y-71649500D01*
X153023216Y-71690423D01*
X152996434Y-71705886D01*
X152941359Y-71737683D01*
X152886286Y-71769479D01*
X152886283Y-71769481D01*
X152774479Y-71881286D01*
X152088283Y-72567481D01*
X152026960Y-72600966D01*
X151957268Y-72595982D01*
X151901335Y-72554110D01*
X151876918Y-72488646D01*
X151891770Y-72420373D01*
X151895052Y-72414722D01*
X151910908Y-72389016D01*
X151965174Y-72225253D01*
X151975500Y-72124177D01*
X151975499Y-71525824D01*
X151965174Y-71424747D01*
X151910908Y-71260984D01*
X151820340Y-71114150D01*
X151706371Y-71000181D01*
X151672886Y-70938858D01*
X151677870Y-70869166D01*
X151706371Y-70824819D01*
X151709500Y-70821690D01*
X151820340Y-70710850D01*
X151910908Y-70564016D01*
X151965174Y-70400253D01*
X151975500Y-70299177D01*
X151975499Y-69700824D01*
X151965174Y-69599747D01*
X151910908Y-69435984D01*
X151820340Y-69289150D01*
X151736819Y-69205629D01*
X151703334Y-69144306D01*
X151700500Y-69117948D01*
X151700500Y-62102211D01*
X151720185Y-62035172D01*
X151772989Y-61989417D01*
X151842147Y-61979473D01*
X151880793Y-61991726D01*
X151891900Y-61997385D01*
X151985774Y-62045217D01*
X151985777Y-62045217D01*
X151985781Y-62045220D01*
X152120245Y-62088910D01*
X152180465Y-62108477D01*
X152281557Y-62124488D01*
X152382648Y-62140500D01*
X152382649Y-62140500D01*
X152587351Y-62140500D01*
X152587352Y-62140500D01*
X152789534Y-62108477D01*
X152984219Y-62045220D01*
X153166610Y-61952287D01*
X153274932Y-61873587D01*
X153332213Y-61831971D01*
X153332215Y-61831968D01*
X153332219Y-61831966D01*
X153476966Y-61687219D01*
X153476968Y-61687215D01*
X153476971Y-61687213D01*
X153531655Y-61611945D01*
X153597287Y-61521610D01*
X153690220Y-61339219D01*
X153753477Y-61144534D01*
X153785500Y-60942352D01*
X153785500Y-60737648D01*
X153764346Y-60604089D01*
X153753477Y-60535465D01*
X153713069Y-60411103D01*
X153690220Y-60340781D01*
X153690218Y-60340778D01*
X153690218Y-60340776D01*
X153656503Y-60274607D01*
X153597287Y-60158390D01*
X153564540Y-60113317D01*
X153476971Y-59992786D01*
X153332213Y-59848028D01*
X153166613Y-59727715D01*
X153166612Y-59727714D01*
X153166610Y-59727713D01*
X153099499Y-59693518D01*
X152984223Y-59634781D01*
X152789534Y-59571522D01*
X152614995Y-59543878D01*
X152587352Y-59539500D01*
X152382648Y-59539500D01*
X152358329Y-59543351D01*
X152180465Y-59571522D01*
X151985776Y-59634781D01*
X151880795Y-59688273D01*
X151812126Y-59701169D01*
X151747385Y-59674893D01*
X151707128Y-59617786D01*
X151700500Y-59577788D01*
X151700500Y-59229601D01*
X151720185Y-59162562D01*
X151768206Y-59119116D01*
X151781610Y-59112287D01*
X151947219Y-58991966D01*
X152091966Y-58847219D01*
X152091968Y-58847215D01*
X152091971Y-58847213D01*
X152144732Y-58774590D01*
X152212287Y-58681610D01*
X152305220Y-58499219D01*
X152368477Y-58304534D01*
X152400500Y-58102352D01*
X152400500Y-57897648D01*
X152368477Y-57695466D01*
X152367673Y-57692993D01*
X152316038Y-57534075D01*
X152305220Y-57500781D01*
X152305218Y-57500778D01*
X152305218Y-57500776D01*
X152242393Y-57377477D01*
X152212287Y-57318390D01*
X152147701Y-57229494D01*
X152124373Y-57197385D01*
X152100893Y-57131579D01*
X152116719Y-57063525D01*
X152166825Y-57014830D01*
X152224691Y-57000500D01*
X158160293Y-57000500D01*
X158227332Y-57020185D01*
X158273087Y-57072989D01*
X158283031Y-57142147D01*
X158254006Y-57205703D01*
X158226265Y-57229494D01*
X157990753Y-57377476D01*
X157771175Y-57552583D01*
X157572583Y-57751175D01*
X157397476Y-57970753D01*
X157248053Y-58208557D01*
X157126200Y-58461588D01*
X157033443Y-58726670D01*
X157033439Y-58726682D01*
X156970945Y-59000487D01*
X156970942Y-59000505D01*
X156939500Y-59279568D01*
X156939500Y-59560431D01*
X156970942Y-59839494D01*
X156970945Y-59839512D01*
X157033439Y-60113317D01*
X157033443Y-60113329D01*
X157126200Y-60378411D01*
X157248053Y-60631442D01*
X157248055Y-60631445D01*
X157397477Y-60869248D01*
X157426647Y-60905826D01*
X157562284Y-61075910D01*
X157572584Y-61088825D01*
X157771175Y-61287416D01*
X157990752Y-61462523D01*
X158228555Y-61611945D01*
X158481592Y-61733801D01*
X158680680Y-61803465D01*
X158746670Y-61826556D01*
X158746682Y-61826560D01*
X159020491Y-61889055D01*
X159020497Y-61889055D01*
X159020505Y-61889057D01*
X159206547Y-61910018D01*
X159299569Y-61920499D01*
X159299572Y-61920500D01*
X159299575Y-61920500D01*
X159580428Y-61920500D01*
X159580429Y-61920499D01*
X159723055Y-61904429D01*
X159859494Y-61889057D01*
X159859499Y-61889056D01*
X159859509Y-61889055D01*
X160133318Y-61826560D01*
X160398408Y-61733801D01*
X160651445Y-61611945D01*
X160889248Y-61462523D01*
X161108825Y-61287416D01*
X161307416Y-61088825D01*
X161482523Y-60869248D01*
X161631945Y-60631445D01*
X161753801Y-60378408D01*
X161846560Y-60113318D01*
X161909055Y-59839509D01*
X161940500Y-59560425D01*
X161940500Y-59279575D01*
X161924605Y-59138499D01*
X161909057Y-59000505D01*
X161909054Y-59000487D01*
X161846560Y-58726682D01*
X161846556Y-58726670D01*
X161823465Y-58660680D01*
X161753801Y-58461592D01*
X161658866Y-58264457D01*
X161631946Y-58208557D01*
X161631945Y-58208555D01*
X161482523Y-57970752D01*
X161307416Y-57751175D01*
X161108825Y-57552584D01*
X161085615Y-57534075D01*
X161042887Y-57500000D01*
X160889248Y-57377477D01*
X160653734Y-57229493D01*
X160607444Y-57177159D01*
X160596796Y-57108106D01*
X160625171Y-57044257D01*
X160683561Y-57005885D01*
X160719707Y-57000500D01*
X163375500Y-57000500D01*
X163442539Y-57020185D01*
X163488294Y-57072989D01*
X163499500Y-57124500D01*
X163499500Y-96375500D01*
X163479815Y-96442539D01*
X163427011Y-96488294D01*
X163375500Y-96499500D01*
X122624500Y-96499500D01*
X122557461Y-96479815D01*
X122511706Y-96427011D01*
X122500500Y-96375500D01*
X122500500Y-57124500D01*
X122520185Y-57057461D01*
X122572989Y-57011706D01*
X122624500Y-57000500D01*
X124860293Y-57000500D01*
X124927332Y-57020185D01*
G37*
%TD.AperFunction*%
%TA.AperFunction,Conductor*%
G36*
X150452614Y-62005106D02*
G01*
X150492871Y-62062212D01*
X150499500Y-62102211D01*
X150499500Y-67685789D01*
X150479815Y-67752828D01*
X150427011Y-67798583D01*
X150357853Y-67808527D01*
X150306609Y-67788891D01*
X150176553Y-67701990D01*
X150176540Y-67701983D01*
X150012667Y-67634106D01*
X150012658Y-67634103D01*
X149838694Y-67599500D01*
X149838691Y-67599500D01*
X149661309Y-67599500D01*
X149661306Y-67599500D01*
X149487341Y-67634103D01*
X149487332Y-67634106D01*
X149323459Y-67701983D01*
X149323441Y-67701993D01*
X149293390Y-67722073D01*
X149226713Y-67742951D01*
X149159333Y-67724466D01*
X149112643Y-67672487D01*
X149100500Y-67618971D01*
X149100500Y-62178434D01*
X149120185Y-62111395D01*
X149172989Y-62065640D01*
X149242147Y-62055696D01*
X149262812Y-62060501D01*
X149357146Y-62091152D01*
X149410465Y-62108477D01*
X149511557Y-62124488D01*
X149612648Y-62140500D01*
X149612649Y-62140500D01*
X149817351Y-62140500D01*
X149817352Y-62140500D01*
X150019534Y-62108477D01*
X150214219Y-62045220D01*
X150319205Y-61991726D01*
X150387873Y-61978830D01*
X150452614Y-62005106D01*
G37*
%TD.AperFunction*%
%TA.AperFunction,Conductor*%
G36*
X143869474Y-58725921D02*
G01*
X143901859Y-58681349D01*
X143994755Y-58499029D01*
X144056806Y-58308061D01*
X144096244Y-58250385D01*
X144160602Y-58223187D01*
X144229449Y-58235102D01*
X144280924Y-58282346D01*
X144292668Y-58308060D01*
X144354781Y-58499223D01*
X144418691Y-58624653D01*
X144447585Y-58681359D01*
X144447715Y-58681613D01*
X144568028Y-58847213D01*
X144712786Y-58991971D01*
X144833226Y-59079474D01*
X144878390Y-59112287D01*
X144959499Y-59153614D01*
X145060776Y-59205218D01*
X145060778Y-59205218D01*
X145060781Y-59205220D01*
X145127647Y-59226946D01*
X145255465Y-59268477D01*
X145325516Y-59279572D01*
X145457648Y-59300500D01*
X145457649Y-59300500D01*
X145662351Y-59300500D01*
X145662352Y-59300500D01*
X145864534Y-59268477D01*
X146059219Y-59205220D01*
X146241610Y-59112287D01*
X146335810Y-59043847D01*
X146407213Y-58991971D01*
X146407215Y-58991968D01*
X146407219Y-58991966D01*
X146551966Y-58847219D01*
X146551968Y-58847215D01*
X146551971Y-58847213D01*
X146604732Y-58774590D01*
X146672287Y-58681610D01*
X146765220Y-58499219D01*
X146827069Y-58308868D01*
X146866507Y-58251193D01*
X146930866Y-58223995D01*
X146999712Y-58235910D01*
X147051188Y-58283154D01*
X147062931Y-58308868D01*
X147124781Y-58499223D01*
X147188691Y-58624653D01*
X147217585Y-58681359D01*
X147217715Y-58681613D01*
X147338028Y-58847213D01*
X147482786Y-58991971D01*
X147648385Y-59112284D01*
X147648387Y-59112285D01*
X147648390Y-59112287D01*
X147830781Y-59205220D01*
X147830784Y-59205221D01*
X147831795Y-59205736D01*
X147882591Y-59253710D01*
X147899500Y-59316221D01*
X147899500Y-59682614D01*
X147879815Y-59749653D01*
X147827011Y-59795408D01*
X147757853Y-59805352D01*
X147702616Y-59782933D01*
X147626612Y-59727714D01*
X147444223Y-59634781D01*
X147249534Y-59571522D01*
X147074995Y-59543878D01*
X147047352Y-59539500D01*
X146842648Y-59539500D01*
X146818329Y-59543351D01*
X146640465Y-59571522D01*
X146445776Y-59634781D01*
X146263386Y-59727715D01*
X146097786Y-59848028D01*
X145953028Y-59992786D01*
X145832715Y-60158386D01*
X145739781Y-60340776D01*
X145677931Y-60531131D01*
X145638493Y-60588806D01*
X145574134Y-60616004D01*
X145505288Y-60604089D01*
X145453812Y-60556845D01*
X145442069Y-60531131D01*
X145380218Y-60340776D01*
X145346503Y-60274607D01*
X145287287Y-60158390D01*
X145254540Y-60113317D01*
X145166971Y-59992786D01*
X145022213Y-59848028D01*
X144856613Y-59727715D01*
X144856612Y-59727714D01*
X144856610Y-59727713D01*
X144789499Y-59693518D01*
X144674223Y-59634781D01*
X144479534Y-59571522D01*
X144304995Y-59543878D01*
X144277352Y-59539500D01*
X144072648Y-59539500D01*
X144034599Y-59545526D01*
X143870468Y-59571522D01*
X143861717Y-59574365D01*
X143856154Y-59576173D01*
X143840941Y-59576607D01*
X143826684Y-59581925D01*
X143806729Y-59577584D01*
X143786313Y-59578167D01*
X143772226Y-59570078D01*
X143758411Y-59567073D01*
X143730157Y-59545922D01*
X143561590Y-59377355D01*
X143561588Y-59377352D01*
X143472505Y-59288269D01*
X143439020Y-59226946D01*
X143444004Y-59157254D01*
X143485876Y-59101321D01*
X143487299Y-59100271D01*
X143515921Y-59079474D01*
X142919409Y-58482962D01*
X142982993Y-58465925D01*
X143097007Y-58400099D01*
X143190099Y-58307007D01*
X143255925Y-58192993D01*
X143272962Y-58129409D01*
X143869474Y-58725921D01*
G37*
%TD.AperFunction*%
%TA.AperFunction,Conductor*%
G36*
X142324075Y-58192993D02*
G01*
X142389901Y-58307007D01*
X142482993Y-58400099D01*
X142597007Y-58465925D01*
X142660590Y-58482962D01*
X142041370Y-59102181D01*
X141980047Y-59135666D01*
X141953689Y-59138500D01*
X140856310Y-59138500D01*
X140789271Y-59118815D01*
X140768629Y-59102181D01*
X140149409Y-58482962D01*
X140212993Y-58465925D01*
X140327007Y-58400099D01*
X140420099Y-58307007D01*
X140485925Y-58192993D01*
X140502962Y-58129409D01*
X141099474Y-58725921D01*
X141131859Y-58681349D01*
X141224755Y-58499031D01*
X141287069Y-58307252D01*
X141326507Y-58249577D01*
X141390866Y-58222379D01*
X141459712Y-58234294D01*
X141511188Y-58281538D01*
X141522931Y-58307252D01*
X141585244Y-58499031D01*
X141678141Y-58681350D01*
X141678147Y-58681359D01*
X141710523Y-58725921D01*
X141710524Y-58725922D01*
X142307037Y-58129408D01*
X142324075Y-58192993D01*
G37*
%TD.AperFunction*%
%TD*%
M02*
