%TF.GenerationSoftware,KiCad,Pcbnew,9.0.6*%
%TF.CreationDate,2025-12-18T07:40:16+02:00*%
%TF.ProjectId,opetusSMPS_HVcontrol,6f706574-7573-4534-9d50-535f4856636f,rev?*%
%TF.SameCoordinates,Original*%
%TF.FileFunction,Legend,Top*%
%TF.FilePolarity,Positive*%
%FSLAX46Y46*%
G04 Gerber Fmt 4.6, Leading zero omitted, Abs format (unit mm)*
G04 Created by KiCad (PCBNEW 9.0.6) date 2025-12-18 07:40:16*
%MOMM*%
%LPD*%
G01*
G04 APERTURE LIST*
%ADD10C,0.150000*%
%ADD11C,0.120000*%
G04 APERTURE END LIST*
D10*
X147454819Y-71079166D02*
X146978628Y-71412499D01*
X147454819Y-71650594D02*
X146454819Y-71650594D01*
X146454819Y-71650594D02*
X146454819Y-71269642D01*
X146454819Y-71269642D02*
X146502438Y-71174404D01*
X146502438Y-71174404D02*
X146550057Y-71126785D01*
X146550057Y-71126785D02*
X146645295Y-71079166D01*
X146645295Y-71079166D02*
X146788152Y-71079166D01*
X146788152Y-71079166D02*
X146883390Y-71126785D01*
X146883390Y-71126785D02*
X146931009Y-71174404D01*
X146931009Y-71174404D02*
X146978628Y-71269642D01*
X146978628Y-71269642D02*
X146978628Y-71650594D01*
X146550057Y-70698213D02*
X146502438Y-70650594D01*
X146502438Y-70650594D02*
X146454819Y-70555356D01*
X146454819Y-70555356D02*
X146454819Y-70317261D01*
X146454819Y-70317261D02*
X146502438Y-70222023D01*
X146502438Y-70222023D02*
X146550057Y-70174404D01*
X146550057Y-70174404D02*
X146645295Y-70126785D01*
X146645295Y-70126785D02*
X146740533Y-70126785D01*
X146740533Y-70126785D02*
X146883390Y-70174404D01*
X146883390Y-70174404D02*
X147454819Y-70745832D01*
X147454819Y-70745832D02*
X147454819Y-70126785D01*
X150333333Y-83609580D02*
X150285714Y-83657200D01*
X150285714Y-83657200D02*
X150142857Y-83704819D01*
X150142857Y-83704819D02*
X150047619Y-83704819D01*
X150047619Y-83704819D02*
X149904762Y-83657200D01*
X149904762Y-83657200D02*
X149809524Y-83561961D01*
X149809524Y-83561961D02*
X149761905Y-83466723D01*
X149761905Y-83466723D02*
X149714286Y-83276247D01*
X149714286Y-83276247D02*
X149714286Y-83133390D01*
X149714286Y-83133390D02*
X149761905Y-82942914D01*
X149761905Y-82942914D02*
X149809524Y-82847676D01*
X149809524Y-82847676D02*
X149904762Y-82752438D01*
X149904762Y-82752438D02*
X150047619Y-82704819D01*
X150047619Y-82704819D02*
X150142857Y-82704819D01*
X150142857Y-82704819D02*
X150285714Y-82752438D01*
X150285714Y-82752438D02*
X150333333Y-82800057D01*
X150714286Y-82800057D02*
X150761905Y-82752438D01*
X150761905Y-82752438D02*
X150857143Y-82704819D01*
X150857143Y-82704819D02*
X151095238Y-82704819D01*
X151095238Y-82704819D02*
X151190476Y-82752438D01*
X151190476Y-82752438D02*
X151238095Y-82800057D01*
X151238095Y-82800057D02*
X151285714Y-82895295D01*
X151285714Y-82895295D02*
X151285714Y-82990533D01*
X151285714Y-82990533D02*
X151238095Y-83133390D01*
X151238095Y-83133390D02*
X150666667Y-83704819D01*
X150666667Y-83704819D02*
X151285714Y-83704819D01*
X142359580Y-78166666D02*
X142407200Y-78214285D01*
X142407200Y-78214285D02*
X142454819Y-78357142D01*
X142454819Y-78357142D02*
X142454819Y-78452380D01*
X142454819Y-78452380D02*
X142407200Y-78595237D01*
X142407200Y-78595237D02*
X142311961Y-78690475D01*
X142311961Y-78690475D02*
X142216723Y-78738094D01*
X142216723Y-78738094D02*
X142026247Y-78785713D01*
X142026247Y-78785713D02*
X141883390Y-78785713D01*
X141883390Y-78785713D02*
X141692914Y-78738094D01*
X141692914Y-78738094D02*
X141597676Y-78690475D01*
X141597676Y-78690475D02*
X141502438Y-78595237D01*
X141502438Y-78595237D02*
X141454819Y-78452380D01*
X141454819Y-78452380D02*
X141454819Y-78357142D01*
X141454819Y-78357142D02*
X141502438Y-78214285D01*
X141502438Y-78214285D02*
X141550057Y-78166666D01*
X141454819Y-77833332D02*
X141454819Y-77214285D01*
X141454819Y-77214285D02*
X141835771Y-77547618D01*
X141835771Y-77547618D02*
X141835771Y-77404761D01*
X141835771Y-77404761D02*
X141883390Y-77309523D01*
X141883390Y-77309523D02*
X141931009Y-77261904D01*
X141931009Y-77261904D02*
X142026247Y-77214285D01*
X142026247Y-77214285D02*
X142264342Y-77214285D01*
X142264342Y-77214285D02*
X142359580Y-77261904D01*
X142359580Y-77261904D02*
X142407200Y-77309523D01*
X142407200Y-77309523D02*
X142454819Y-77404761D01*
X142454819Y-77404761D02*
X142454819Y-77690475D01*
X142454819Y-77690475D02*
X142407200Y-77785713D01*
X142407200Y-77785713D02*
X142359580Y-77833332D01*
X146583333Y-83609580D02*
X146535714Y-83657200D01*
X146535714Y-83657200D02*
X146392857Y-83704819D01*
X146392857Y-83704819D02*
X146297619Y-83704819D01*
X146297619Y-83704819D02*
X146154762Y-83657200D01*
X146154762Y-83657200D02*
X146059524Y-83561961D01*
X146059524Y-83561961D02*
X146011905Y-83466723D01*
X146011905Y-83466723D02*
X145964286Y-83276247D01*
X145964286Y-83276247D02*
X145964286Y-83133390D01*
X145964286Y-83133390D02*
X146011905Y-82942914D01*
X146011905Y-82942914D02*
X146059524Y-82847676D01*
X146059524Y-82847676D02*
X146154762Y-82752438D01*
X146154762Y-82752438D02*
X146297619Y-82704819D01*
X146297619Y-82704819D02*
X146392857Y-82704819D01*
X146392857Y-82704819D02*
X146535714Y-82752438D01*
X146535714Y-82752438D02*
X146583333Y-82800057D01*
X147535714Y-83704819D02*
X146964286Y-83704819D01*
X147250000Y-83704819D02*
X147250000Y-82704819D01*
X147250000Y-82704819D02*
X147154762Y-82847676D01*
X147154762Y-82847676D02*
X147059524Y-82942914D01*
X147059524Y-82942914D02*
X146964286Y-82990533D01*
X143704819Y-76261904D02*
X144514342Y-76261904D01*
X144514342Y-76261904D02*
X144609580Y-76214285D01*
X144609580Y-76214285D02*
X144657200Y-76166666D01*
X144657200Y-76166666D02*
X144704819Y-76071428D01*
X144704819Y-76071428D02*
X144704819Y-75880952D01*
X144704819Y-75880952D02*
X144657200Y-75785714D01*
X144657200Y-75785714D02*
X144609580Y-75738095D01*
X144609580Y-75738095D02*
X144514342Y-75690476D01*
X144514342Y-75690476D02*
X143704819Y-75690476D01*
X144704819Y-74690476D02*
X144704819Y-75261904D01*
X144704819Y-74976190D02*
X143704819Y-74976190D01*
X143704819Y-74976190D02*
X143847676Y-75071428D01*
X143847676Y-75071428D02*
X143942914Y-75166666D01*
X143942914Y-75166666D02*
X143990533Y-75261904D01*
X159859580Y-78279166D02*
X159907200Y-78326785D01*
X159907200Y-78326785D02*
X159954819Y-78469642D01*
X159954819Y-78469642D02*
X159954819Y-78564880D01*
X159954819Y-78564880D02*
X159907200Y-78707737D01*
X159907200Y-78707737D02*
X159811961Y-78802975D01*
X159811961Y-78802975D02*
X159716723Y-78850594D01*
X159716723Y-78850594D02*
X159526247Y-78898213D01*
X159526247Y-78898213D02*
X159383390Y-78898213D01*
X159383390Y-78898213D02*
X159192914Y-78850594D01*
X159192914Y-78850594D02*
X159097676Y-78802975D01*
X159097676Y-78802975D02*
X159002438Y-78707737D01*
X159002438Y-78707737D02*
X158954819Y-78564880D01*
X158954819Y-78564880D02*
X158954819Y-78469642D01*
X158954819Y-78469642D02*
X159002438Y-78326785D01*
X159002438Y-78326785D02*
X159050057Y-78279166D01*
X159288152Y-77422023D02*
X159954819Y-77422023D01*
X158907200Y-77660118D02*
X159621485Y-77898213D01*
X159621485Y-77898213D02*
X159621485Y-77279166D01*
X152954819Y-70916666D02*
X152478628Y-71249999D01*
X152954819Y-71488094D02*
X151954819Y-71488094D01*
X151954819Y-71488094D02*
X151954819Y-71107142D01*
X151954819Y-71107142D02*
X152002438Y-71011904D01*
X152002438Y-71011904D02*
X152050057Y-70964285D01*
X152050057Y-70964285D02*
X152145295Y-70916666D01*
X152145295Y-70916666D02*
X152288152Y-70916666D01*
X152288152Y-70916666D02*
X152383390Y-70964285D01*
X152383390Y-70964285D02*
X152431009Y-71011904D01*
X152431009Y-71011904D02*
X152478628Y-71107142D01*
X152478628Y-71107142D02*
X152478628Y-71488094D01*
X152954819Y-69964285D02*
X152954819Y-70535713D01*
X152954819Y-70249999D02*
X151954819Y-70249999D01*
X151954819Y-70249999D02*
X152097676Y-70345237D01*
X152097676Y-70345237D02*
X152192914Y-70440475D01*
X152192914Y-70440475D02*
X152240533Y-70535713D01*
X141083333Y-73359580D02*
X141035714Y-73407200D01*
X141035714Y-73407200D02*
X140892857Y-73454819D01*
X140892857Y-73454819D02*
X140797619Y-73454819D01*
X140797619Y-73454819D02*
X140654762Y-73407200D01*
X140654762Y-73407200D02*
X140559524Y-73311961D01*
X140559524Y-73311961D02*
X140511905Y-73216723D01*
X140511905Y-73216723D02*
X140464286Y-73026247D01*
X140464286Y-73026247D02*
X140464286Y-72883390D01*
X140464286Y-72883390D02*
X140511905Y-72692914D01*
X140511905Y-72692914D02*
X140559524Y-72597676D01*
X140559524Y-72597676D02*
X140654762Y-72502438D01*
X140654762Y-72502438D02*
X140797619Y-72454819D01*
X140797619Y-72454819D02*
X140892857Y-72454819D01*
X140892857Y-72454819D02*
X141035714Y-72502438D01*
X141035714Y-72502438D02*
X141083333Y-72550057D01*
X141988095Y-72454819D02*
X141511905Y-72454819D01*
X141511905Y-72454819D02*
X141464286Y-72931009D01*
X141464286Y-72931009D02*
X141511905Y-72883390D01*
X141511905Y-72883390D02*
X141607143Y-72835771D01*
X141607143Y-72835771D02*
X141845238Y-72835771D01*
X141845238Y-72835771D02*
X141940476Y-72883390D01*
X141940476Y-72883390D02*
X141988095Y-72931009D01*
X141988095Y-72931009D02*
X142035714Y-73026247D01*
X142035714Y-73026247D02*
X142035714Y-73264342D01*
X142035714Y-73264342D02*
X141988095Y-73359580D01*
X141988095Y-73359580D02*
X141940476Y-73407200D01*
X141940476Y-73407200D02*
X141845238Y-73454819D01*
X141845238Y-73454819D02*
X141607143Y-73454819D01*
X141607143Y-73454819D02*
X141511905Y-73407200D01*
X141511905Y-73407200D02*
X141464286Y-73359580D01*
X142456666Y-66184819D02*
X142456666Y-66899104D01*
X142456666Y-66899104D02*
X142409047Y-67041961D01*
X142409047Y-67041961D02*
X142313809Y-67137200D01*
X142313809Y-67137200D02*
X142170952Y-67184819D01*
X142170952Y-67184819D02*
X142075714Y-67184819D01*
X143456666Y-67184819D02*
X142885238Y-67184819D01*
X143170952Y-67184819D02*
X143170952Y-66184819D01*
X143170952Y-66184819D02*
X143075714Y-66327676D01*
X143075714Y-66327676D02*
X142980476Y-66422914D01*
X142980476Y-66422914D02*
X142885238Y-66470533D01*
X139556666Y-82934819D02*
X139556666Y-83649104D01*
X139556666Y-83649104D02*
X139509047Y-83791961D01*
X139509047Y-83791961D02*
X139413809Y-83887200D01*
X139413809Y-83887200D02*
X139270952Y-83934819D01*
X139270952Y-83934819D02*
X139175714Y-83934819D01*
X139985238Y-83030057D02*
X140032857Y-82982438D01*
X140032857Y-82982438D02*
X140128095Y-82934819D01*
X140128095Y-82934819D02*
X140366190Y-82934819D01*
X140366190Y-82934819D02*
X140461428Y-82982438D01*
X140461428Y-82982438D02*
X140509047Y-83030057D01*
X140509047Y-83030057D02*
X140556666Y-83125295D01*
X140556666Y-83125295D02*
X140556666Y-83220533D01*
X140556666Y-83220533D02*
X140509047Y-83363390D01*
X140509047Y-83363390D02*
X139937619Y-83934819D01*
X139937619Y-83934819D02*
X140556666Y-83934819D01*
D11*
%TO.C,R2*%
X147977500Y-71167224D02*
X147977500Y-70657776D01*
X149022500Y-71167224D02*
X149022500Y-70657776D01*
%TO.C,C2*%
X150241233Y-81240000D02*
X150533767Y-81240000D01*
X150241233Y-82260000D02*
X150533767Y-82260000D01*
%TO.C,C3*%
X143240000Y-77991233D02*
X143240000Y-78283767D01*
X144260000Y-77991233D02*
X144260000Y-78283767D01*
%TO.C,C1*%
X146741233Y-81240000D02*
X147033767Y-81240000D01*
X146741233Y-82260000D02*
X147033767Y-82260000D01*
%TO.C,U1*%
X145265000Y-74665000D02*
X145320000Y-74665000D01*
X145265000Y-78785000D02*
X145265000Y-74665000D01*
X145320000Y-78785000D02*
X145265000Y-78785000D01*
X155330000Y-74665000D02*
X155385000Y-74665000D01*
X155385000Y-74665000D02*
X155385000Y-78785000D01*
X155385000Y-78785000D02*
X155330000Y-78785000D01*
X145315000Y-79325000D02*
X144985000Y-79565000D01*
X144985000Y-79085000D01*
X145315000Y-79325000D01*
G36*
X145315000Y-79325000D02*
G01*
X144985000Y-79565000D01*
X144985000Y-79085000D01*
X145315000Y-79325000D01*
G37*
%TO.C,C4*%
X157240000Y-77966233D02*
X157240000Y-78258767D01*
X158260000Y-77966233D02*
X158260000Y-78258767D01*
%TO.C,R1*%
X150477500Y-71167224D02*
X150477500Y-70657776D01*
X151522500Y-71167224D02*
X151522500Y-70657776D01*
%TO.C,C5*%
X141646267Y-73740000D02*
X141353733Y-73740000D01*
X141646267Y-74760000D02*
X141353733Y-74760000D01*
%TO.C,J1*%
X123130000Y-64670000D02*
X123130000Y-54170000D01*
X124190000Y-53110000D02*
X161390000Y-53110000D01*
X130773530Y-61481744D02*
X131602267Y-56781744D01*
X132845000Y-66624338D02*
X133095000Y-66191325D01*
X133095000Y-66191325D02*
X133345000Y-66624338D01*
X133237048Y-55410000D02*
X152342952Y-55410000D01*
X133345000Y-66624338D02*
X132845000Y-66624338D01*
X153171689Y-63430000D02*
X132408311Y-63430000D01*
X153977733Y-56781744D02*
X154806470Y-61481744D01*
X161390000Y-65730000D02*
X124190000Y-65730000D01*
X162450000Y-54170000D02*
X162450000Y-64670000D01*
X123130000Y-54170000D02*
G75*
G02*
X124190000Y-53110000I1060000J0D01*
G01*
X124190000Y-65730000D02*
G75*
G02*
X123130000Y-64670000I0J1060000D01*
G01*
X131602267Y-56781744D02*
G75*
G02*
X133237048Y-55410000I1634780J-288255D01*
G01*
X132408311Y-63430000D02*
G75*
G02*
X130773529Y-61481744I-1J1660000D01*
G01*
X152342952Y-55410000D02*
G75*
G02*
X153977733Y-56781744I1J-1659999D01*
G01*
X154806470Y-61481744D02*
G75*
G02*
X153171689Y-63430000I-1634781J-288256D01*
G01*
X161390000Y-53110000D02*
G75*
G02*
X162450000Y-54170000I-1J-1060001D01*
G01*
X162450000Y-64670000D02*
G75*
G02*
X161390000Y-65730000I-1060001J1D01*
G01*
%TO.C,J2*%
X126770000Y-84480000D02*
X153010000Y-84480000D01*
X126770000Y-86100000D02*
X153010000Y-86100000D01*
X126770000Y-93850000D02*
X153010000Y-93850000D01*
X126770000Y-94970000D02*
X126770000Y-84480000D01*
X129130000Y-94970000D02*
X126770000Y-94970000D01*
X153010000Y-84480000D02*
X153010000Y-94970000D01*
X153010000Y-94970000D02*
X129730000Y-94970000D01*
X129870000Y-95580000D02*
X128990000Y-95580000D01*
X129430000Y-94970000D01*
X129870000Y-95580000D01*
G36*
X129870000Y-95580000D02*
G01*
X128990000Y-95580000D01*
X129430000Y-94970000D01*
X129870000Y-95580000D01*
G37*
%TD*%
M02*
