%TF.GenerationSoftware,KiCad,Pcbnew,9.0.6*%
%TF.CreationDate,2025-12-18T07:40:16+02:00*%
%TF.ProjectId,opetusSMPS_HVcontrol,6f706574-7573-4534-9d50-535f4856636f,rev?*%
%TF.SameCoordinates,Original*%
%TF.FileFunction,Copper,L2,Bot*%
%TF.FilePolarity,Positive*%
%FSLAX46Y46*%
G04 Gerber Fmt 4.6, Leading zero omitted, Abs format (unit mm)*
G04 Created by KiCad (PCBNEW 9.0.6) date 2025-12-18 07:40:16*
%MOMM*%
%LPD*%
G01*
G04 APERTURE LIST*
G04 Aperture macros list*
%AMRoundRect*
0 Rectangle with rounded corners*
0 $1 Rounding radius*
0 $2 $3 $4 $5 $6 $7 $8 $9 X,Y pos of 4 corners*
0 Add a 4 corners polygon primitive as box body*
4,1,4,$2,$3,$4,$5,$6,$7,$8,$9,$2,$3,0*
0 Add four circle primitives for the rounded corners*
1,1,$1+$1,$2,$3*
1,1,$1+$1,$4,$5*
1,1,$1+$1,$6,$7*
1,1,$1+$1,$8,$9*
0 Add four rect primitives between the rounded corners*
20,1,$1+$1,$2,$3,$4,$5,0*
20,1,$1+$1,$4,$5,$6,$7,0*
20,1,$1+$1,$6,$7,$8,$9,0*
20,1,$1+$1,$8,$9,$2,$3,0*%
G04 Aperture macros list end*
%TA.AperFunction,ComponentPad*%
%ADD10C,4.000000*%
%TD*%
%TA.AperFunction,ComponentPad*%
%ADD11R,1.600000X1.600000*%
%TD*%
%TA.AperFunction,ComponentPad*%
%ADD12C,1.600000*%
%TD*%
%TA.AperFunction,ComponentPad*%
%ADD13RoundRect,0.250001X-0.949999X-0.949999X0.949999X-0.949999X0.949999X0.949999X-0.949999X0.949999X0*%
%TD*%
%TA.AperFunction,ComponentPad*%
%ADD14C,2.400000*%
%TD*%
%TA.AperFunction,ViaPad*%
%ADD15C,0.800000*%
%TD*%
%TA.AperFunction,Conductor*%
%ADD16C,0.200000*%
%TD*%
G04 APERTURE END LIST*
D10*
%TO.P,J1,0*%
%TO.N,N/C*%
X159440000Y-59420000D03*
X126140000Y-59420000D03*
D11*
%TO.P,J1,1,1*%
%TO.N,GND*%
X133095000Y-60840000D03*
D12*
%TO.P,J1,2,2*%
%TO.N,/+24V*%
X135865000Y-60840000D03*
%TO.P,J1,3,3*%
%TO.N,unconnected-(J1-Pad3)*%
X138635000Y-60840000D03*
%TO.P,J1,4,4*%
%TO.N,unconnected-(J1-Pad4)*%
X141405000Y-60840000D03*
%TO.P,J1,5,5*%
%TO.N,Net-(J1-P10)*%
X144175000Y-60840000D03*
%TO.P,J1,6,6*%
%TO.N,unconnected-(J1-Pad6)*%
X146945000Y-60840000D03*
%TO.P,J1,7,7*%
%TO.N,unconnected-(J1-Pad7)*%
X149715000Y-60840000D03*
%TO.P,J1,8,8*%
%TO.N,unconnected-(J1-Pad8)*%
X152485000Y-60840000D03*
%TO.P,J1,9,P9*%
%TO.N,unconnected-(J1-P9-Pad9)*%
X134480000Y-58000000D03*
%TO.P,J1,10,P10*%
%TO.N,Net-(J1-P10)*%
X137250000Y-58000000D03*
%TO.P,J1,11,P111*%
%TO.N,GND*%
X140020000Y-58000000D03*
%TO.P,J1,12,P12*%
X142790000Y-58000000D03*
%TO.P,J1,13,P13*%
%TO.N,unconnected-(J1-P13-Pad13)*%
X145560000Y-58000000D03*
%TO.P,J1,14,P14*%
%TO.N,Net-(J1-P14)*%
X148330000Y-58000000D03*
%TO.P,J1,15,P15*%
%TO.N,Net-(J1-P15)*%
X151100000Y-58000000D03*
%TD*%
D13*
%TO.P,J2,1,Pin_1*%
%TO.N,/+24V*%
X129430000Y-89500000D03*
D14*
%TO.P,J2,2,Pin_2*%
%TO.N,GND*%
X134510000Y-89500000D03*
%TO.P,J2,3,Pin_3*%
%TO.N,/3V3*%
X139590000Y-89500000D03*
%TO.P,J2,4,Pin_4*%
%TO.N,/RX_IN*%
X144670000Y-89500000D03*
%TO.P,J2,5,Pin_5*%
%TO.N,/TX_IN*%
X149750000Y-89500000D03*
%TD*%
D15*
%TO.N,GND*%
X135500000Y-77000000D03*
X149750000Y-66750000D03*
%TO.N,/TX_IN*%
X155250000Y-72250000D03*
X155250000Y-84750000D03*
%TO.N,/RX_IN*%
X154000000Y-84750000D03*
X149750000Y-68500000D03*
%TD*%
D16*
%TO.N,/TX_IN*%
X155250000Y-84750000D02*
X155250000Y-72250000D01*
%TO.N,/RX_IN*%
X154000000Y-72750000D02*
X149750000Y-68500000D01*
X154000000Y-84750000D02*
X154000000Y-72750000D01*
%TD*%
%TA.AperFunction,Conductor*%
%TO.N,GND*%
G36*
X124927332Y-57020185D02*
G01*
X124973087Y-57072989D01*
X124983031Y-57142147D01*
X124954006Y-57205703D01*
X124926265Y-57229494D01*
X124690753Y-57377476D01*
X124471175Y-57552583D01*
X124272583Y-57751175D01*
X124097476Y-57970753D01*
X123948053Y-58208557D01*
X123826200Y-58461588D01*
X123733443Y-58726670D01*
X123733439Y-58726682D01*
X123670945Y-59000487D01*
X123670942Y-59000505D01*
X123639500Y-59279568D01*
X123639500Y-59560431D01*
X123670942Y-59839494D01*
X123670945Y-59839512D01*
X123733439Y-60113317D01*
X123733443Y-60113329D01*
X123826200Y-60378411D01*
X123948053Y-60631442D01*
X123948055Y-60631445D01*
X124097477Y-60869248D01*
X124126647Y-60905826D01*
X124262284Y-61075910D01*
X124272584Y-61088825D01*
X124471175Y-61287416D01*
X124690752Y-61462523D01*
X124928555Y-61611945D01*
X125181592Y-61733801D01*
X125380680Y-61803465D01*
X125446670Y-61826556D01*
X125446682Y-61826560D01*
X125720491Y-61889055D01*
X125720497Y-61889055D01*
X125720505Y-61889057D01*
X125906547Y-61910018D01*
X125999569Y-61920499D01*
X125999572Y-61920500D01*
X125999575Y-61920500D01*
X126280428Y-61920500D01*
X126280429Y-61920499D01*
X126423055Y-61904429D01*
X126559494Y-61889057D01*
X126559499Y-61889056D01*
X126559509Y-61889055D01*
X126833318Y-61826560D01*
X127098408Y-61733801D01*
X127351445Y-61611945D01*
X127589248Y-61462523D01*
X127808825Y-61287416D01*
X128007416Y-61088825D01*
X128182523Y-60869248D01*
X128331945Y-60631445D01*
X128453801Y-60378408D01*
X128546560Y-60113318D01*
X128574215Y-59992155D01*
X131795000Y-59992155D01*
X131795000Y-60590000D01*
X132661988Y-60590000D01*
X132629075Y-60647007D01*
X132595000Y-60774174D01*
X132595000Y-60905826D01*
X132629075Y-61032993D01*
X132661988Y-61090000D01*
X131795000Y-61090000D01*
X131795000Y-61687844D01*
X131801401Y-61747372D01*
X131801403Y-61747379D01*
X131851645Y-61882086D01*
X131851649Y-61882093D01*
X131937809Y-61997187D01*
X131937812Y-61997190D01*
X132052906Y-62083350D01*
X132052913Y-62083354D01*
X132187620Y-62133596D01*
X132187627Y-62133598D01*
X132247155Y-62139999D01*
X132247172Y-62140000D01*
X132845000Y-62140000D01*
X132845000Y-61273012D01*
X132902007Y-61305925D01*
X133029174Y-61340000D01*
X133160826Y-61340000D01*
X133287993Y-61305925D01*
X133345000Y-61273012D01*
X133345000Y-62140000D01*
X133942828Y-62140000D01*
X133942844Y-62139999D01*
X134002372Y-62133598D01*
X134002379Y-62133596D01*
X134137086Y-62083354D01*
X134137093Y-62083350D01*
X134252187Y-61997190D01*
X134252190Y-61997187D01*
X134338350Y-61882093D01*
X134338354Y-61882086D01*
X134388596Y-61747379D01*
X134388598Y-61747372D01*
X134394999Y-61687844D01*
X134395000Y-61687827D01*
X134395000Y-61307215D01*
X134414685Y-61240176D01*
X134467489Y-61194421D01*
X134536647Y-61184477D01*
X134600203Y-61213502D01*
X134636931Y-61268896D01*
X134659781Y-61339223D01*
X134752715Y-61521613D01*
X134873028Y-61687213D01*
X135017786Y-61831971D01*
X135172749Y-61944556D01*
X135183390Y-61952287D01*
X135271517Y-61997190D01*
X135365776Y-62045218D01*
X135365778Y-62045218D01*
X135365781Y-62045220D01*
X135470137Y-62079127D01*
X135560465Y-62108477D01*
X135661557Y-62124488D01*
X135762648Y-62140500D01*
X135762649Y-62140500D01*
X135967351Y-62140500D01*
X135967352Y-62140500D01*
X136169534Y-62108477D01*
X136364219Y-62045220D01*
X136546610Y-61952287D01*
X136643234Y-61882086D01*
X136712213Y-61831971D01*
X136712215Y-61831968D01*
X136712219Y-61831966D01*
X136856966Y-61687219D01*
X136856968Y-61687215D01*
X136856971Y-61687213D01*
X136911655Y-61611945D01*
X136977287Y-61521610D01*
X137070220Y-61339219D01*
X137132069Y-61148868D01*
X137171507Y-61091193D01*
X137235866Y-61063995D01*
X137304712Y-61075910D01*
X137356188Y-61123154D01*
X137367931Y-61148868D01*
X137429781Y-61339223D01*
X137522715Y-61521613D01*
X137643028Y-61687213D01*
X137787786Y-61831971D01*
X137942749Y-61944556D01*
X137953390Y-61952287D01*
X138041517Y-61997190D01*
X138135776Y-62045218D01*
X138135778Y-62045218D01*
X138135781Y-62045220D01*
X138240137Y-62079127D01*
X138330465Y-62108477D01*
X138431557Y-62124488D01*
X138532648Y-62140500D01*
X138532649Y-62140500D01*
X138737351Y-62140500D01*
X138737352Y-62140500D01*
X138939534Y-62108477D01*
X139134219Y-62045220D01*
X139316610Y-61952287D01*
X139413234Y-61882086D01*
X139482213Y-61831971D01*
X139482215Y-61831968D01*
X139482219Y-61831966D01*
X139626966Y-61687219D01*
X139626968Y-61687215D01*
X139626971Y-61687213D01*
X139681655Y-61611945D01*
X139747287Y-61521610D01*
X139840220Y-61339219D01*
X139902069Y-61148868D01*
X139941507Y-61091193D01*
X140005866Y-61063995D01*
X140074712Y-61075910D01*
X140126188Y-61123154D01*
X140137931Y-61148868D01*
X140199781Y-61339223D01*
X140292715Y-61521613D01*
X140413028Y-61687213D01*
X140557786Y-61831971D01*
X140712749Y-61944556D01*
X140723390Y-61952287D01*
X140811517Y-61997190D01*
X140905776Y-62045218D01*
X140905778Y-62045218D01*
X140905781Y-62045220D01*
X141010137Y-62079127D01*
X141100465Y-62108477D01*
X141201557Y-62124488D01*
X141302648Y-62140500D01*
X141302649Y-62140500D01*
X141507351Y-62140500D01*
X141507352Y-62140500D01*
X141709534Y-62108477D01*
X141904219Y-62045220D01*
X142086610Y-61952287D01*
X142183234Y-61882086D01*
X142252213Y-61831971D01*
X142252215Y-61831968D01*
X142252219Y-61831966D01*
X142396966Y-61687219D01*
X142396968Y-61687215D01*
X142396971Y-61687213D01*
X142451655Y-61611945D01*
X142517287Y-61521610D01*
X142610220Y-61339219D01*
X142672069Y-61148868D01*
X142711507Y-61091193D01*
X142775866Y-61063995D01*
X142844712Y-61075910D01*
X142896188Y-61123154D01*
X142907931Y-61148868D01*
X142969781Y-61339223D01*
X143062715Y-61521613D01*
X143183028Y-61687213D01*
X143327786Y-61831971D01*
X143482749Y-61944556D01*
X143493390Y-61952287D01*
X143581517Y-61997190D01*
X143675776Y-62045218D01*
X143675778Y-62045218D01*
X143675781Y-62045220D01*
X143780137Y-62079127D01*
X143870465Y-62108477D01*
X143971557Y-62124488D01*
X144072648Y-62140500D01*
X144072649Y-62140500D01*
X144277351Y-62140500D01*
X144277352Y-62140500D01*
X144479534Y-62108477D01*
X144674219Y-62045220D01*
X144856610Y-61952287D01*
X144953234Y-61882086D01*
X145022213Y-61831971D01*
X145022215Y-61831968D01*
X145022219Y-61831966D01*
X145166966Y-61687219D01*
X145166968Y-61687215D01*
X145166971Y-61687213D01*
X145221655Y-61611945D01*
X145287287Y-61521610D01*
X145380220Y-61339219D01*
X145442069Y-61148868D01*
X145481507Y-61091193D01*
X145545866Y-61063995D01*
X145614712Y-61075910D01*
X145666188Y-61123154D01*
X145677931Y-61148868D01*
X145739781Y-61339223D01*
X145832715Y-61521613D01*
X145953028Y-61687213D01*
X146097786Y-61831971D01*
X146252749Y-61944556D01*
X146263390Y-61952287D01*
X146351517Y-61997190D01*
X146445776Y-62045218D01*
X146445778Y-62045218D01*
X146445781Y-62045220D01*
X146550137Y-62079127D01*
X146640465Y-62108477D01*
X146741557Y-62124488D01*
X146842648Y-62140500D01*
X146842649Y-62140500D01*
X147047351Y-62140500D01*
X147047352Y-62140500D01*
X147249534Y-62108477D01*
X147444219Y-62045220D01*
X147626610Y-61952287D01*
X147723234Y-61882086D01*
X147792213Y-61831971D01*
X147792215Y-61831968D01*
X147792219Y-61831966D01*
X147936966Y-61687219D01*
X147936968Y-61687215D01*
X147936971Y-61687213D01*
X147991655Y-61611945D01*
X148057287Y-61521610D01*
X148150220Y-61339219D01*
X148212069Y-61148868D01*
X148251507Y-61091193D01*
X148315866Y-61063995D01*
X148384712Y-61075910D01*
X148436188Y-61123154D01*
X148447931Y-61148868D01*
X148509781Y-61339223D01*
X148602715Y-61521613D01*
X148723028Y-61687213D01*
X148867786Y-61831971D01*
X149022749Y-61944556D01*
X149033390Y-61952287D01*
X149121517Y-61997190D01*
X149215776Y-62045218D01*
X149215778Y-62045218D01*
X149215781Y-62045220D01*
X149320137Y-62079127D01*
X149410465Y-62108477D01*
X149511557Y-62124488D01*
X149612648Y-62140500D01*
X149612649Y-62140500D01*
X149817351Y-62140500D01*
X149817352Y-62140500D01*
X150019534Y-62108477D01*
X150214219Y-62045220D01*
X150396610Y-61952287D01*
X150493234Y-61882086D01*
X150562213Y-61831971D01*
X150562215Y-61831968D01*
X150562219Y-61831966D01*
X150706966Y-61687219D01*
X150706968Y-61687215D01*
X150706971Y-61687213D01*
X150761655Y-61611945D01*
X150827287Y-61521610D01*
X150920220Y-61339219D01*
X150982069Y-61148868D01*
X151021507Y-61091193D01*
X151085866Y-61063995D01*
X151154712Y-61075910D01*
X151206188Y-61123154D01*
X151217931Y-61148868D01*
X151279781Y-61339223D01*
X151372715Y-61521613D01*
X151493028Y-61687213D01*
X151637786Y-61831971D01*
X151792749Y-61944556D01*
X151803390Y-61952287D01*
X151891517Y-61997190D01*
X151985776Y-62045218D01*
X151985778Y-62045218D01*
X151985781Y-62045220D01*
X152090137Y-62079127D01*
X152180465Y-62108477D01*
X152281557Y-62124488D01*
X152382648Y-62140500D01*
X152382649Y-62140500D01*
X152587351Y-62140500D01*
X152587352Y-62140500D01*
X152789534Y-62108477D01*
X152984219Y-62045220D01*
X153166610Y-61952287D01*
X153263234Y-61882086D01*
X153332213Y-61831971D01*
X153332215Y-61831968D01*
X153332219Y-61831966D01*
X153476966Y-61687219D01*
X153476968Y-61687215D01*
X153476971Y-61687213D01*
X153531655Y-61611945D01*
X153597287Y-61521610D01*
X153690220Y-61339219D01*
X153753477Y-61144534D01*
X153785500Y-60942352D01*
X153785500Y-60737648D01*
X153764346Y-60604089D01*
X153753477Y-60535465D01*
X153713069Y-60411103D01*
X153690220Y-60340781D01*
X153690218Y-60340778D01*
X153690218Y-60340776D01*
X153656503Y-60274607D01*
X153597287Y-60158390D01*
X153564540Y-60113317D01*
X153476971Y-59992786D01*
X153332213Y-59848028D01*
X153166613Y-59727715D01*
X153166612Y-59727714D01*
X153166610Y-59727713D01*
X153078487Y-59682812D01*
X152984223Y-59634781D01*
X152789534Y-59571522D01*
X152614995Y-59543878D01*
X152587352Y-59539500D01*
X152382648Y-59539500D01*
X152358329Y-59543351D01*
X152180465Y-59571522D01*
X151985776Y-59634781D01*
X151803386Y-59727715D01*
X151637786Y-59848028D01*
X151493028Y-59992786D01*
X151372715Y-60158386D01*
X151279781Y-60340776D01*
X151217931Y-60531131D01*
X151178493Y-60588806D01*
X151114134Y-60616004D01*
X151045288Y-60604089D01*
X150993812Y-60556845D01*
X150982069Y-60531131D01*
X150920218Y-60340776D01*
X150886503Y-60274607D01*
X150827287Y-60158390D01*
X150794540Y-60113317D01*
X150706971Y-59992786D01*
X150562213Y-59848028D01*
X150396613Y-59727715D01*
X150396612Y-59727714D01*
X150396610Y-59727713D01*
X150308487Y-59682812D01*
X150214223Y-59634781D01*
X150019534Y-59571522D01*
X149844995Y-59543878D01*
X149817352Y-59539500D01*
X149612648Y-59539500D01*
X149588329Y-59543351D01*
X149410465Y-59571522D01*
X149215776Y-59634781D01*
X149033386Y-59727715D01*
X148867786Y-59848028D01*
X148723028Y-59992786D01*
X148602715Y-60158386D01*
X148509781Y-60340776D01*
X148447931Y-60531131D01*
X148408493Y-60588806D01*
X148344134Y-60616004D01*
X148275288Y-60604089D01*
X148223812Y-60556845D01*
X148212069Y-60531131D01*
X148150218Y-60340776D01*
X148116503Y-60274607D01*
X148057287Y-60158390D01*
X148024540Y-60113317D01*
X147936971Y-59992786D01*
X147792213Y-59848028D01*
X147626613Y-59727715D01*
X147626612Y-59727714D01*
X147626610Y-59727713D01*
X147538487Y-59682812D01*
X147444223Y-59634781D01*
X147249534Y-59571522D01*
X147074995Y-59543878D01*
X147047352Y-59539500D01*
X146842648Y-59539500D01*
X146818329Y-59543351D01*
X146640465Y-59571522D01*
X146445776Y-59634781D01*
X146263386Y-59727715D01*
X146097786Y-59848028D01*
X145953028Y-59992786D01*
X145832715Y-60158386D01*
X145739781Y-60340776D01*
X145677931Y-60531131D01*
X145638493Y-60588806D01*
X145574134Y-60616004D01*
X145505288Y-60604089D01*
X145453812Y-60556845D01*
X145442069Y-60531131D01*
X145380218Y-60340776D01*
X145346503Y-60274607D01*
X145287287Y-60158390D01*
X145254540Y-60113317D01*
X145166971Y-59992786D01*
X145022213Y-59848028D01*
X144856613Y-59727715D01*
X144856612Y-59727714D01*
X144856610Y-59727713D01*
X144768487Y-59682812D01*
X144674223Y-59634781D01*
X144479534Y-59571522D01*
X144304995Y-59543878D01*
X144277352Y-59539500D01*
X144072648Y-59539500D01*
X144048329Y-59543351D01*
X143870465Y-59571522D01*
X143675776Y-59634781D01*
X143493386Y-59727715D01*
X143327786Y-59848028D01*
X143183028Y-59992786D01*
X143062715Y-60158386D01*
X142969781Y-60340776D01*
X142907931Y-60531131D01*
X142868493Y-60588806D01*
X142804134Y-60616004D01*
X142735288Y-60604089D01*
X142683812Y-60556845D01*
X142672069Y-60531131D01*
X142610218Y-60340776D01*
X142576503Y-60274607D01*
X142517287Y-60158390D01*
X142484540Y-60113317D01*
X142396971Y-59992786D01*
X142252213Y-59848028D01*
X142086613Y-59727715D01*
X142086612Y-59727714D01*
X142086610Y-59727713D01*
X141998487Y-59682812D01*
X141904223Y-59634781D01*
X141709534Y-59571522D01*
X141534995Y-59543878D01*
X141507352Y-59539500D01*
X141302648Y-59539500D01*
X141278329Y-59543351D01*
X141100465Y-59571522D01*
X140905776Y-59634781D01*
X140723386Y-59727715D01*
X140557786Y-59848028D01*
X140413028Y-59992786D01*
X140292715Y-60158386D01*
X140199781Y-60340776D01*
X140137931Y-60531131D01*
X140098493Y-60588806D01*
X140034134Y-60616004D01*
X139965288Y-60604089D01*
X139913812Y-60556845D01*
X139902069Y-60531131D01*
X139840218Y-60340776D01*
X139806503Y-60274607D01*
X139747287Y-60158390D01*
X139714540Y-60113317D01*
X139626971Y-59992786D01*
X139482213Y-59848028D01*
X139316613Y-59727715D01*
X139316612Y-59727714D01*
X139316610Y-59727713D01*
X139228487Y-59682812D01*
X139134223Y-59634781D01*
X138939534Y-59571522D01*
X138764995Y-59543878D01*
X138737352Y-59539500D01*
X138532648Y-59539500D01*
X138508329Y-59543351D01*
X138330465Y-59571522D01*
X138135776Y-59634781D01*
X137953386Y-59727715D01*
X137787786Y-59848028D01*
X137643028Y-59992786D01*
X137522715Y-60158386D01*
X137429781Y-60340776D01*
X137367931Y-60531131D01*
X137328493Y-60588806D01*
X137264134Y-60616004D01*
X137195288Y-60604089D01*
X137143812Y-60556845D01*
X137132069Y-60531131D01*
X137070218Y-60340776D01*
X137036503Y-60274607D01*
X136977287Y-60158390D01*
X136944540Y-60113317D01*
X136856971Y-59992786D01*
X136712213Y-59848028D01*
X136546613Y-59727715D01*
X136546612Y-59727714D01*
X136546610Y-59727713D01*
X136458487Y-59682812D01*
X136364223Y-59634781D01*
X136169534Y-59571522D01*
X135994995Y-59543878D01*
X135967352Y-59539500D01*
X135762648Y-59539500D01*
X135738329Y-59543351D01*
X135560465Y-59571522D01*
X135365776Y-59634781D01*
X135183386Y-59727715D01*
X135017786Y-59848028D01*
X134873028Y-59992786D01*
X134752715Y-60158386D01*
X134659781Y-60340776D01*
X134636931Y-60411103D01*
X134597493Y-60468778D01*
X134533134Y-60495976D01*
X134464288Y-60484061D01*
X134412812Y-60436816D01*
X134395000Y-60372784D01*
X134395000Y-59992172D01*
X134394999Y-59992155D01*
X134388598Y-59932627D01*
X134388596Y-59932620D01*
X134338354Y-59797913D01*
X134338350Y-59797906D01*
X134252190Y-59682812D01*
X134252187Y-59682809D01*
X134137093Y-59596649D01*
X134137086Y-59596645D01*
X134002379Y-59546403D01*
X134002372Y-59546401D01*
X133942844Y-59540000D01*
X133345000Y-59540000D01*
X133345000Y-60406988D01*
X133287993Y-60374075D01*
X133160826Y-60340000D01*
X133029174Y-60340000D01*
X132902007Y-60374075D01*
X132845000Y-60406988D01*
X132845000Y-59540000D01*
X132247155Y-59540000D01*
X132187627Y-59546401D01*
X132187620Y-59546403D01*
X132052913Y-59596645D01*
X132052906Y-59596649D01*
X131937812Y-59682809D01*
X131937809Y-59682812D01*
X131851649Y-59797906D01*
X131851645Y-59797913D01*
X131801403Y-59932620D01*
X131801401Y-59932627D01*
X131795000Y-59992155D01*
X128574215Y-59992155D01*
X128609055Y-59839509D01*
X128640500Y-59560425D01*
X128640500Y-59279575D01*
X128609055Y-59000491D01*
X128546560Y-58726682D01*
X128453801Y-58461592D01*
X128331945Y-58208555D01*
X128182523Y-57970752D01*
X128007416Y-57751175D01*
X127808825Y-57552584D01*
X127785615Y-57534075D01*
X127742887Y-57500000D01*
X127589248Y-57377477D01*
X127353734Y-57229493D01*
X127307444Y-57177159D01*
X127296796Y-57108106D01*
X127325171Y-57044257D01*
X127383561Y-57005885D01*
X127419707Y-57000500D01*
X133355309Y-57000500D01*
X133422348Y-57020185D01*
X133468103Y-57072989D01*
X133478047Y-57142147D01*
X133455627Y-57197385D01*
X133367715Y-57318386D01*
X133274781Y-57500776D01*
X133211522Y-57695465D01*
X133179500Y-57897648D01*
X133179500Y-58102351D01*
X133211522Y-58304534D01*
X133274781Y-58499223D01*
X133338691Y-58624653D01*
X133367585Y-58681359D01*
X133367715Y-58681613D01*
X133488028Y-58847213D01*
X133632786Y-58991971D01*
X133753226Y-59079474D01*
X133798390Y-59112287D01*
X133914607Y-59171503D01*
X133980776Y-59205218D01*
X133980778Y-59205218D01*
X133980781Y-59205220D01*
X134085137Y-59239127D01*
X134175465Y-59268477D01*
X134245516Y-59279572D01*
X134377648Y-59300500D01*
X134377649Y-59300500D01*
X134582351Y-59300500D01*
X134582352Y-59300500D01*
X134784534Y-59268477D01*
X134979219Y-59205220D01*
X135161610Y-59112287D01*
X135254590Y-59044732D01*
X135327213Y-58991971D01*
X135327215Y-58991968D01*
X135327219Y-58991966D01*
X135471966Y-58847219D01*
X135471968Y-58847215D01*
X135471971Y-58847213D01*
X135524732Y-58774590D01*
X135592287Y-58681610D01*
X135685220Y-58499219D01*
X135747069Y-58308868D01*
X135786507Y-58251193D01*
X135850866Y-58223995D01*
X135919712Y-58235910D01*
X135971188Y-58283154D01*
X135982931Y-58308868D01*
X136044781Y-58499223D01*
X136108691Y-58624653D01*
X136137585Y-58681359D01*
X136137715Y-58681613D01*
X136258028Y-58847213D01*
X136402786Y-58991971D01*
X136523226Y-59079474D01*
X136568390Y-59112287D01*
X136684607Y-59171503D01*
X136750776Y-59205218D01*
X136750778Y-59205218D01*
X136750781Y-59205220D01*
X136855137Y-59239127D01*
X136945465Y-59268477D01*
X137015516Y-59279572D01*
X137147648Y-59300500D01*
X137147649Y-59300500D01*
X137352351Y-59300500D01*
X137352352Y-59300500D01*
X137554534Y-59268477D01*
X137749219Y-59205220D01*
X137931610Y-59112287D01*
X138024590Y-59044732D01*
X138097213Y-58991971D01*
X138097215Y-58991968D01*
X138097219Y-58991966D01*
X138241966Y-58847219D01*
X138241968Y-58847215D01*
X138241971Y-58847213D01*
X138294732Y-58774590D01*
X138362287Y-58681610D01*
X138455220Y-58499219D01*
X138517331Y-58308060D01*
X138556769Y-58250385D01*
X138621127Y-58223187D01*
X138689974Y-58235102D01*
X138741449Y-58282346D01*
X138753193Y-58308060D01*
X138815244Y-58499031D01*
X138908141Y-58681350D01*
X138908147Y-58681359D01*
X138940523Y-58725921D01*
X138940524Y-58725922D01*
X139537037Y-58129408D01*
X139554075Y-58192993D01*
X139619901Y-58307007D01*
X139712993Y-58400099D01*
X139827007Y-58465925D01*
X139890590Y-58482962D01*
X139294076Y-59079474D01*
X139338650Y-59111859D01*
X139520968Y-59204755D01*
X139715582Y-59267990D01*
X139917683Y-59300000D01*
X140122317Y-59300000D01*
X140324417Y-59267990D01*
X140519031Y-59204755D01*
X140701349Y-59111859D01*
X140745921Y-59079474D01*
X140149409Y-58482962D01*
X140212993Y-58465925D01*
X140327007Y-58400099D01*
X140420099Y-58307007D01*
X140485925Y-58192993D01*
X140502962Y-58129409D01*
X141099474Y-58725921D01*
X141131859Y-58681349D01*
X141224755Y-58499031D01*
X141287069Y-58307252D01*
X141326507Y-58249577D01*
X141390866Y-58222379D01*
X141459712Y-58234294D01*
X141511188Y-58281538D01*
X141522931Y-58307252D01*
X141585244Y-58499031D01*
X141678141Y-58681350D01*
X141678147Y-58681359D01*
X141710523Y-58725921D01*
X141710524Y-58725922D01*
X142307037Y-58129408D01*
X142324075Y-58192993D01*
X142389901Y-58307007D01*
X142482993Y-58400099D01*
X142597007Y-58465925D01*
X142660590Y-58482962D01*
X142064076Y-59079474D01*
X142108650Y-59111859D01*
X142290968Y-59204755D01*
X142485582Y-59267990D01*
X142687683Y-59300000D01*
X142892317Y-59300000D01*
X143094417Y-59267990D01*
X143289031Y-59204755D01*
X143471349Y-59111859D01*
X143515921Y-59079474D01*
X142919409Y-58482962D01*
X142982993Y-58465925D01*
X143097007Y-58400099D01*
X143190099Y-58307007D01*
X143255925Y-58192993D01*
X143272962Y-58129409D01*
X143869474Y-58725921D01*
X143901859Y-58681349D01*
X143994755Y-58499029D01*
X144056806Y-58308061D01*
X144096244Y-58250385D01*
X144160602Y-58223187D01*
X144229449Y-58235102D01*
X144280924Y-58282346D01*
X144292668Y-58308060D01*
X144354781Y-58499223D01*
X144418691Y-58624653D01*
X144447585Y-58681359D01*
X144447715Y-58681613D01*
X144568028Y-58847213D01*
X144712786Y-58991971D01*
X144833226Y-59079474D01*
X144878390Y-59112287D01*
X144994607Y-59171503D01*
X145060776Y-59205218D01*
X145060778Y-59205218D01*
X145060781Y-59205220D01*
X145165137Y-59239127D01*
X145255465Y-59268477D01*
X145325516Y-59279572D01*
X145457648Y-59300500D01*
X145457649Y-59300500D01*
X145662351Y-59300500D01*
X145662352Y-59300500D01*
X145864534Y-59268477D01*
X146059219Y-59205220D01*
X146241610Y-59112287D01*
X146334590Y-59044732D01*
X146407213Y-58991971D01*
X146407215Y-58991968D01*
X146407219Y-58991966D01*
X146551966Y-58847219D01*
X146551968Y-58847215D01*
X146551971Y-58847213D01*
X146604732Y-58774590D01*
X146672287Y-58681610D01*
X146765220Y-58499219D01*
X146827069Y-58308868D01*
X146866507Y-58251193D01*
X146930866Y-58223995D01*
X146999712Y-58235910D01*
X147051188Y-58283154D01*
X147062931Y-58308868D01*
X147124781Y-58499223D01*
X147188691Y-58624653D01*
X147217585Y-58681359D01*
X147217715Y-58681613D01*
X147338028Y-58847213D01*
X147482786Y-58991971D01*
X147603226Y-59079474D01*
X147648390Y-59112287D01*
X147764607Y-59171503D01*
X147830776Y-59205218D01*
X147830778Y-59205218D01*
X147830781Y-59205220D01*
X147935137Y-59239127D01*
X148025465Y-59268477D01*
X148095516Y-59279572D01*
X148227648Y-59300500D01*
X148227649Y-59300500D01*
X148432351Y-59300500D01*
X148432352Y-59300500D01*
X148634534Y-59268477D01*
X148829219Y-59205220D01*
X149011610Y-59112287D01*
X149104590Y-59044732D01*
X149177213Y-58991971D01*
X149177215Y-58991968D01*
X149177219Y-58991966D01*
X149321966Y-58847219D01*
X149321968Y-58847215D01*
X149321971Y-58847213D01*
X149374732Y-58774590D01*
X149442287Y-58681610D01*
X149535220Y-58499219D01*
X149597069Y-58308868D01*
X149636507Y-58251193D01*
X149700866Y-58223995D01*
X149769712Y-58235910D01*
X149821188Y-58283154D01*
X149832931Y-58308868D01*
X149894781Y-58499223D01*
X149958691Y-58624653D01*
X149987585Y-58681359D01*
X149987715Y-58681613D01*
X150108028Y-58847213D01*
X150252786Y-58991971D01*
X150373226Y-59079474D01*
X150418390Y-59112287D01*
X150534607Y-59171503D01*
X150600776Y-59205218D01*
X150600778Y-59205218D01*
X150600781Y-59205220D01*
X150705137Y-59239127D01*
X150795465Y-59268477D01*
X150865516Y-59279572D01*
X150997648Y-59300500D01*
X150997649Y-59300500D01*
X151202351Y-59300500D01*
X151202352Y-59300500D01*
X151404534Y-59268477D01*
X151599219Y-59205220D01*
X151781610Y-59112287D01*
X151874590Y-59044732D01*
X151947213Y-58991971D01*
X151947215Y-58991968D01*
X151947219Y-58991966D01*
X152091966Y-58847219D01*
X152091968Y-58847215D01*
X152091971Y-58847213D01*
X152144732Y-58774590D01*
X152212287Y-58681610D01*
X152305220Y-58499219D01*
X152368477Y-58304534D01*
X152400500Y-58102352D01*
X152400500Y-57897648D01*
X152368477Y-57695466D01*
X152367673Y-57692993D01*
X152316038Y-57534075D01*
X152305220Y-57500781D01*
X152305218Y-57500778D01*
X152305218Y-57500776D01*
X152242393Y-57377477D01*
X152212287Y-57318390D01*
X152147701Y-57229494D01*
X152124373Y-57197385D01*
X152100893Y-57131579D01*
X152116719Y-57063525D01*
X152166825Y-57014830D01*
X152224691Y-57000500D01*
X158160293Y-57000500D01*
X158227332Y-57020185D01*
X158273087Y-57072989D01*
X158283031Y-57142147D01*
X158254006Y-57205703D01*
X158226265Y-57229494D01*
X157990753Y-57377476D01*
X157771175Y-57552583D01*
X157572583Y-57751175D01*
X157397476Y-57970753D01*
X157248053Y-58208557D01*
X157126200Y-58461588D01*
X157033443Y-58726670D01*
X157033439Y-58726682D01*
X156970945Y-59000487D01*
X156970942Y-59000505D01*
X156939500Y-59279568D01*
X156939500Y-59560431D01*
X156970942Y-59839494D01*
X156970945Y-59839512D01*
X157033439Y-60113317D01*
X157033443Y-60113329D01*
X157126200Y-60378411D01*
X157248053Y-60631442D01*
X157248055Y-60631445D01*
X157397477Y-60869248D01*
X157426647Y-60905826D01*
X157562284Y-61075910D01*
X157572584Y-61088825D01*
X157771175Y-61287416D01*
X157990752Y-61462523D01*
X158228555Y-61611945D01*
X158481592Y-61733801D01*
X158680680Y-61803465D01*
X158746670Y-61826556D01*
X158746682Y-61826560D01*
X159020491Y-61889055D01*
X159020497Y-61889055D01*
X159020505Y-61889057D01*
X159206547Y-61910018D01*
X159299569Y-61920499D01*
X159299572Y-61920500D01*
X159299575Y-61920500D01*
X159580428Y-61920500D01*
X159580429Y-61920499D01*
X159723055Y-61904429D01*
X159859494Y-61889057D01*
X159859499Y-61889056D01*
X159859509Y-61889055D01*
X160133318Y-61826560D01*
X160398408Y-61733801D01*
X160651445Y-61611945D01*
X160889248Y-61462523D01*
X161108825Y-61287416D01*
X161307416Y-61088825D01*
X161482523Y-60869248D01*
X161631945Y-60631445D01*
X161753801Y-60378408D01*
X161846560Y-60113318D01*
X161909055Y-59839509D01*
X161940500Y-59560425D01*
X161940500Y-59279575D01*
X161909055Y-59000491D01*
X161846560Y-58726682D01*
X161753801Y-58461592D01*
X161631945Y-58208555D01*
X161482523Y-57970752D01*
X161307416Y-57751175D01*
X161108825Y-57552584D01*
X161085615Y-57534075D01*
X161042887Y-57500000D01*
X160889248Y-57377477D01*
X160653734Y-57229493D01*
X160607444Y-57177159D01*
X160596796Y-57108106D01*
X160625171Y-57044257D01*
X160683561Y-57005885D01*
X160719707Y-57000500D01*
X163375500Y-57000500D01*
X163442539Y-57020185D01*
X163488294Y-57072989D01*
X163499500Y-57124500D01*
X163499500Y-96375500D01*
X163479815Y-96442539D01*
X163427011Y-96488294D01*
X163375500Y-96499500D01*
X122624500Y-96499500D01*
X122557461Y-96479815D01*
X122511706Y-96427011D01*
X122500500Y-96375500D01*
X122500500Y-88499984D01*
X127729500Y-88499984D01*
X127729500Y-90500015D01*
X127740000Y-90602795D01*
X127740001Y-90602797D01*
X127746904Y-90623629D01*
X127795186Y-90769335D01*
X127795187Y-90769337D01*
X127887286Y-90918651D01*
X127887289Y-90918655D01*
X128011344Y-91042710D01*
X128011348Y-91042713D01*
X128160662Y-91134812D01*
X128160664Y-91134813D01*
X128160666Y-91134814D01*
X128327203Y-91189999D01*
X128429992Y-91200500D01*
X128429997Y-91200500D01*
X130430003Y-91200500D01*
X130430008Y-91200500D01*
X130532797Y-91189999D01*
X130699334Y-91134814D01*
X130848655Y-91042711D01*
X130972711Y-90918655D01*
X131027535Y-90829770D01*
X131064810Y-90769341D01*
X131064810Y-90769339D01*
X131064814Y-90769334D01*
X131119999Y-90602797D01*
X131130500Y-90500008D01*
X131130500Y-89388575D01*
X132810000Y-89388575D01*
X132810000Y-89611424D01*
X132839085Y-89832354D01*
X132839088Y-89832367D01*
X132896763Y-90047618D01*
X132982045Y-90253502D01*
X132982054Y-90253520D01*
X133093464Y-90446491D01*
X133093473Y-90446504D01*
X133144040Y-90512403D01*
X133144043Y-90512403D01*
X133794152Y-89862293D01*
X133801049Y-89878942D01*
X133888599Y-90009970D01*
X134000030Y-90121401D01*
X134131058Y-90208951D01*
X134147705Y-90215846D01*
X133497595Y-90865955D01*
X133497595Y-90865956D01*
X133563507Y-90916533D01*
X133756485Y-91027949D01*
X133756497Y-91027954D01*
X133962381Y-91113236D01*
X134177632Y-91170911D01*
X134177645Y-91170914D01*
X134398575Y-91200000D01*
X134621425Y-91200000D01*
X134842354Y-91170914D01*
X134842367Y-91170911D01*
X135057618Y-91113236D01*
X135263502Y-91027954D01*
X135263514Y-91027949D01*
X135456498Y-90916530D01*
X135522403Y-90865957D01*
X135522404Y-90865956D01*
X134872294Y-90215846D01*
X134888942Y-90208951D01*
X135019970Y-90121401D01*
X135131401Y-90009970D01*
X135218951Y-89878942D01*
X135225846Y-89862294D01*
X135875956Y-90512404D01*
X135875957Y-90512403D01*
X135926530Y-90446498D01*
X136037949Y-90253514D01*
X136037954Y-90253502D01*
X136123236Y-90047618D01*
X136180911Y-89832367D01*
X136180914Y-89832354D01*
X136210000Y-89611424D01*
X136210000Y-89388575D01*
X136209997Y-89388549D01*
X137889500Y-89388549D01*
X137889500Y-89611450D01*
X137889501Y-89611466D01*
X137918594Y-89832452D01*
X137918595Y-89832457D01*
X137918596Y-89832463D01*
X137976290Y-90047780D01*
X137976293Y-90047790D01*
X138061593Y-90253722D01*
X138061595Y-90253726D01*
X138173052Y-90446774D01*
X138173057Y-90446780D01*
X138173058Y-90446782D01*
X138308751Y-90623622D01*
X138308757Y-90623629D01*
X138466370Y-90781242D01*
X138466376Y-90781247D01*
X138643226Y-90916948D01*
X138836274Y-91028405D01*
X138870812Y-91042711D01*
X139041074Y-91113236D01*
X139042219Y-91113710D01*
X139257537Y-91171404D01*
X139478543Y-91200500D01*
X139478550Y-91200500D01*
X139701450Y-91200500D01*
X139701457Y-91200500D01*
X139922463Y-91171404D01*
X140137781Y-91113710D01*
X140343726Y-91028405D01*
X140536774Y-90916948D01*
X140713624Y-90781247D01*
X140871247Y-90623624D01*
X141006948Y-90446774D01*
X141118405Y-90253726D01*
X141203710Y-90047781D01*
X141261404Y-89832463D01*
X141290500Y-89611457D01*
X141290500Y-89388549D01*
X142969500Y-89388549D01*
X142969500Y-89611450D01*
X142969501Y-89611466D01*
X142998594Y-89832452D01*
X142998595Y-89832457D01*
X142998596Y-89832463D01*
X143056290Y-90047780D01*
X143056293Y-90047790D01*
X143141593Y-90253722D01*
X143141595Y-90253726D01*
X143253052Y-90446774D01*
X143253057Y-90446780D01*
X143253058Y-90446782D01*
X143388751Y-90623622D01*
X143388757Y-90623629D01*
X143546370Y-90781242D01*
X143546376Y-90781247D01*
X143723226Y-90916948D01*
X143916274Y-91028405D01*
X143950812Y-91042711D01*
X144121074Y-91113236D01*
X144122219Y-91113710D01*
X144337537Y-91171404D01*
X144558543Y-91200500D01*
X144558550Y-91200500D01*
X144781450Y-91200500D01*
X144781457Y-91200500D01*
X145002463Y-91171404D01*
X145217781Y-91113710D01*
X145423726Y-91028405D01*
X145616774Y-90916948D01*
X145793624Y-90781247D01*
X145951247Y-90623624D01*
X146086948Y-90446774D01*
X146198405Y-90253726D01*
X146283710Y-90047781D01*
X146341404Y-89832463D01*
X146370500Y-89611457D01*
X146370500Y-89388549D01*
X148049500Y-89388549D01*
X148049500Y-89611450D01*
X148049501Y-89611466D01*
X148078594Y-89832452D01*
X148078595Y-89832457D01*
X148078596Y-89832463D01*
X148136290Y-90047780D01*
X148136293Y-90047790D01*
X148221593Y-90253722D01*
X148221595Y-90253726D01*
X148333052Y-90446774D01*
X148333057Y-90446780D01*
X148333058Y-90446782D01*
X148468751Y-90623622D01*
X148468757Y-90623629D01*
X148626370Y-90781242D01*
X148626376Y-90781247D01*
X148803226Y-90916948D01*
X148996274Y-91028405D01*
X149030812Y-91042711D01*
X149201074Y-91113236D01*
X149202219Y-91113710D01*
X149417537Y-91171404D01*
X149638543Y-91200500D01*
X149638550Y-91200500D01*
X149861450Y-91200500D01*
X149861457Y-91200500D01*
X150082463Y-91171404D01*
X150297781Y-91113710D01*
X150503726Y-91028405D01*
X150696774Y-90916948D01*
X150873624Y-90781247D01*
X151031247Y-90623624D01*
X151166948Y-90446774D01*
X151278405Y-90253726D01*
X151363710Y-90047781D01*
X151421404Y-89832463D01*
X151450500Y-89611457D01*
X151450500Y-89388543D01*
X151421404Y-89167537D01*
X151363710Y-88952219D01*
X151278405Y-88746274D01*
X151166948Y-88553226D01*
X151031247Y-88376376D01*
X151031242Y-88376370D01*
X150873629Y-88218757D01*
X150873622Y-88218751D01*
X150696782Y-88083058D01*
X150696780Y-88083057D01*
X150696774Y-88083052D01*
X150503726Y-87971595D01*
X150503722Y-87971593D01*
X150297790Y-87886293D01*
X150297783Y-87886291D01*
X150297781Y-87886290D01*
X150082463Y-87828596D01*
X150082457Y-87828595D01*
X150082452Y-87828594D01*
X149861466Y-87799501D01*
X149861463Y-87799500D01*
X149861457Y-87799500D01*
X149638543Y-87799500D01*
X149638537Y-87799500D01*
X149638533Y-87799501D01*
X149417547Y-87828594D01*
X149417540Y-87828595D01*
X149417537Y-87828596D01*
X149280981Y-87865186D01*
X149202219Y-87886290D01*
X149202209Y-87886293D01*
X148996277Y-87971593D01*
X148996273Y-87971595D01*
X148803226Y-88083052D01*
X148803217Y-88083058D01*
X148626377Y-88218751D01*
X148626370Y-88218757D01*
X148468757Y-88376370D01*
X148468751Y-88376377D01*
X148333058Y-88553217D01*
X148333052Y-88553226D01*
X148221595Y-88746273D01*
X148221593Y-88746277D01*
X148136293Y-88952209D01*
X148136290Y-88952219D01*
X148078597Y-89167534D01*
X148078594Y-89167547D01*
X148049501Y-89388533D01*
X148049500Y-89388549D01*
X146370500Y-89388549D01*
X146370500Y-89388543D01*
X146341404Y-89167537D01*
X146283710Y-88952219D01*
X146198405Y-88746274D01*
X146086948Y-88553226D01*
X145951247Y-88376376D01*
X145951242Y-88376370D01*
X145793629Y-88218757D01*
X145793622Y-88218751D01*
X145616782Y-88083058D01*
X145616780Y-88083057D01*
X145616774Y-88083052D01*
X145423726Y-87971595D01*
X145423722Y-87971593D01*
X145217790Y-87886293D01*
X145217783Y-87886291D01*
X145217781Y-87886290D01*
X145002463Y-87828596D01*
X145002457Y-87828595D01*
X145002452Y-87828594D01*
X144781466Y-87799501D01*
X144781463Y-87799500D01*
X144781457Y-87799500D01*
X144558543Y-87799500D01*
X144558537Y-87799500D01*
X144558533Y-87799501D01*
X144337547Y-87828594D01*
X144337540Y-87828595D01*
X144337537Y-87828596D01*
X144200981Y-87865186D01*
X144122219Y-87886290D01*
X144122209Y-87886293D01*
X143916277Y-87971593D01*
X143916273Y-87971595D01*
X143723226Y-88083052D01*
X143723217Y-88083058D01*
X143546377Y-88218751D01*
X143546370Y-88218757D01*
X143388757Y-88376370D01*
X143388751Y-88376377D01*
X143253058Y-88553217D01*
X143253052Y-88553226D01*
X143141595Y-88746273D01*
X143141593Y-88746277D01*
X143056293Y-88952209D01*
X143056290Y-88952219D01*
X142998597Y-89167534D01*
X142998594Y-89167547D01*
X142969501Y-89388533D01*
X142969500Y-89388549D01*
X141290500Y-89388549D01*
X141290500Y-89388543D01*
X141261404Y-89167537D01*
X141203710Y-88952219D01*
X141118405Y-88746274D01*
X141006948Y-88553226D01*
X140871247Y-88376376D01*
X140871242Y-88376370D01*
X140713629Y-88218757D01*
X140713622Y-88218751D01*
X140536782Y-88083058D01*
X140536780Y-88083057D01*
X140536774Y-88083052D01*
X140343726Y-87971595D01*
X140343722Y-87971593D01*
X140137790Y-87886293D01*
X140137783Y-87886291D01*
X140137781Y-87886290D01*
X139922463Y-87828596D01*
X139922457Y-87828595D01*
X139922452Y-87828594D01*
X139701466Y-87799501D01*
X139701463Y-87799500D01*
X139701457Y-87799500D01*
X139478543Y-87799500D01*
X139478537Y-87799500D01*
X139478533Y-87799501D01*
X139257547Y-87828594D01*
X139257540Y-87828595D01*
X139257537Y-87828596D01*
X139120981Y-87865186D01*
X139042219Y-87886290D01*
X139042209Y-87886293D01*
X138836277Y-87971593D01*
X138836273Y-87971595D01*
X138643226Y-88083052D01*
X138643217Y-88083058D01*
X138466377Y-88218751D01*
X138466370Y-88218757D01*
X138308757Y-88376370D01*
X138308751Y-88376377D01*
X138173058Y-88553217D01*
X138173052Y-88553226D01*
X138061595Y-88746273D01*
X138061593Y-88746277D01*
X137976293Y-88952209D01*
X137976290Y-88952219D01*
X137918597Y-89167534D01*
X137918594Y-89167547D01*
X137889501Y-89388533D01*
X137889500Y-89388549D01*
X136209997Y-89388549D01*
X136180914Y-89167645D01*
X136180911Y-89167632D01*
X136123236Y-88952381D01*
X136037954Y-88746497D01*
X136037949Y-88746485D01*
X135926533Y-88553507D01*
X135875956Y-88487595D01*
X135875955Y-88487595D01*
X135225846Y-89137704D01*
X135218951Y-89121058D01*
X135131401Y-88990030D01*
X135019970Y-88878599D01*
X134888942Y-88791049D01*
X134872293Y-88784152D01*
X135522403Y-88134043D01*
X135522403Y-88134040D01*
X135456504Y-88083473D01*
X135456491Y-88083464D01*
X135263520Y-87972054D01*
X135263502Y-87972045D01*
X135057618Y-87886763D01*
X134842367Y-87829088D01*
X134842354Y-87829085D01*
X134621425Y-87800000D01*
X134398575Y-87800000D01*
X134177645Y-87829085D01*
X134177632Y-87829088D01*
X133962381Y-87886763D01*
X133756497Y-87972045D01*
X133756479Y-87972054D01*
X133563511Y-88083462D01*
X133497595Y-88134042D01*
X134147706Y-88784152D01*
X134131058Y-88791049D01*
X134000030Y-88878599D01*
X133888599Y-88990030D01*
X133801049Y-89121058D01*
X133794153Y-89137706D01*
X133144042Y-88487595D01*
X133093462Y-88553511D01*
X132982054Y-88746479D01*
X132982045Y-88746497D01*
X132896763Y-88952381D01*
X132839088Y-89167632D01*
X132839085Y-89167645D01*
X132810000Y-89388575D01*
X131130500Y-89388575D01*
X131130500Y-88499992D01*
X131119999Y-88397203D01*
X131064814Y-88230666D01*
X130972711Y-88081345D01*
X130848655Y-87957289D01*
X130848651Y-87957286D01*
X130699337Y-87865187D01*
X130699335Y-87865186D01*
X130616065Y-87837593D01*
X130532797Y-87810001D01*
X130532795Y-87810000D01*
X130430015Y-87799500D01*
X130430008Y-87799500D01*
X128429992Y-87799500D01*
X128429984Y-87799500D01*
X128327204Y-87810000D01*
X128327203Y-87810001D01*
X128160664Y-87865186D01*
X128160662Y-87865187D01*
X128011348Y-87957286D01*
X128011344Y-87957289D01*
X127887289Y-88081344D01*
X127887286Y-88081348D01*
X127795187Y-88230662D01*
X127795186Y-88230664D01*
X127740001Y-88397203D01*
X127740000Y-88397204D01*
X127729500Y-88499984D01*
X122500500Y-88499984D01*
X122500500Y-68411304D01*
X148849500Y-68411304D01*
X148849500Y-68588695D01*
X148884103Y-68762658D01*
X148884106Y-68762667D01*
X148951983Y-68926540D01*
X148951990Y-68926553D01*
X149050535Y-69074034D01*
X149050538Y-69074038D01*
X149175961Y-69199461D01*
X149175965Y-69199464D01*
X149323446Y-69298009D01*
X149323459Y-69298016D01*
X149446363Y-69348923D01*
X149487334Y-69365894D01*
X149487336Y-69365894D01*
X149487341Y-69365896D01*
X149661304Y-69400499D01*
X149661307Y-69400500D01*
X149661309Y-69400500D01*
X149749903Y-69400500D01*
X149816942Y-69420185D01*
X149837584Y-69436819D01*
X153363181Y-72962416D01*
X153396666Y-73023739D01*
X153399500Y-73050097D01*
X153399500Y-84025638D01*
X153379815Y-84092677D01*
X153363181Y-84113319D01*
X153300538Y-84175961D01*
X153300535Y-84175965D01*
X153201990Y-84323446D01*
X153201983Y-84323459D01*
X153134106Y-84487332D01*
X153134103Y-84487341D01*
X153099500Y-84661304D01*
X153099500Y-84838695D01*
X153134103Y-85012658D01*
X153134106Y-85012667D01*
X153201983Y-85176540D01*
X153201990Y-85176553D01*
X153300535Y-85324034D01*
X153300538Y-85324038D01*
X153425961Y-85449461D01*
X153425965Y-85449464D01*
X153573446Y-85548009D01*
X153573459Y-85548016D01*
X153696363Y-85598923D01*
X153737334Y-85615894D01*
X153737336Y-85615894D01*
X153737341Y-85615896D01*
X153911304Y-85650499D01*
X153911307Y-85650500D01*
X153911309Y-85650500D01*
X154088693Y-85650500D01*
X154088694Y-85650499D01*
X154146682Y-85638964D01*
X154262658Y-85615896D01*
X154262661Y-85615894D01*
X154262666Y-85615894D01*
X154426547Y-85548013D01*
X154556109Y-85461442D01*
X154622786Y-85440564D01*
X154690166Y-85459048D01*
X154693891Y-85461442D01*
X154823453Y-85548013D01*
X154823455Y-85548014D01*
X154823459Y-85548016D01*
X154946363Y-85598923D01*
X154987334Y-85615894D01*
X154987336Y-85615894D01*
X154987341Y-85615896D01*
X155161304Y-85650499D01*
X155161307Y-85650500D01*
X155161309Y-85650500D01*
X155338693Y-85650500D01*
X155338694Y-85650499D01*
X155396682Y-85638964D01*
X155512658Y-85615896D01*
X155512661Y-85615894D01*
X155512666Y-85615894D01*
X155676547Y-85548013D01*
X155824035Y-85449464D01*
X155949464Y-85324035D01*
X156048013Y-85176547D01*
X156115894Y-85012666D01*
X156150500Y-84838691D01*
X156150500Y-84661309D01*
X156150500Y-84661306D01*
X156150499Y-84661304D01*
X156115896Y-84487341D01*
X156115893Y-84487332D01*
X156048016Y-84323459D01*
X156048009Y-84323446D01*
X155949464Y-84175965D01*
X155949461Y-84175961D01*
X155886819Y-84113319D01*
X155853334Y-84051996D01*
X155850500Y-84025638D01*
X155850500Y-72974361D01*
X155870185Y-72907322D01*
X155886814Y-72886684D01*
X155949464Y-72824035D01*
X156048013Y-72676547D01*
X156115894Y-72512666D01*
X156150500Y-72338691D01*
X156150500Y-72161309D01*
X156150500Y-72161306D01*
X156150499Y-72161304D01*
X156115896Y-71987341D01*
X156115893Y-71987332D01*
X156048016Y-71823459D01*
X156048009Y-71823446D01*
X155949464Y-71675965D01*
X155949461Y-71675961D01*
X155824038Y-71550538D01*
X155824034Y-71550535D01*
X155676553Y-71451990D01*
X155676540Y-71451983D01*
X155512667Y-71384106D01*
X155512658Y-71384103D01*
X155338694Y-71349500D01*
X155338691Y-71349500D01*
X155161309Y-71349500D01*
X155161306Y-71349500D01*
X154987341Y-71384103D01*
X154987332Y-71384106D01*
X154823459Y-71451983D01*
X154823446Y-71451990D01*
X154675965Y-71550535D01*
X154675961Y-71550538D01*
X154550538Y-71675961D01*
X154550535Y-71675965D01*
X154451990Y-71823446D01*
X154451983Y-71823459D01*
X154384106Y-71987332D01*
X154384105Y-71987337D01*
X154379999Y-72007978D01*
X154347612Y-72069889D01*
X154286895Y-72104461D01*
X154217126Y-72100720D01*
X154170701Y-72071465D01*
X150686819Y-68587583D01*
X150653334Y-68526260D01*
X150650500Y-68499902D01*
X150650500Y-68411306D01*
X150650499Y-68411304D01*
X150615896Y-68237341D01*
X150615893Y-68237332D01*
X150548016Y-68073459D01*
X150548009Y-68073446D01*
X150449464Y-67925965D01*
X150449461Y-67925961D01*
X150324038Y-67800538D01*
X150324034Y-67800535D01*
X150176553Y-67701990D01*
X150176540Y-67701983D01*
X150012667Y-67634106D01*
X150012658Y-67634103D01*
X149838694Y-67599500D01*
X149838691Y-67599500D01*
X149661309Y-67599500D01*
X149661306Y-67599500D01*
X149487341Y-67634103D01*
X149487332Y-67634106D01*
X149323459Y-67701983D01*
X149323446Y-67701990D01*
X149175965Y-67800535D01*
X149175961Y-67800538D01*
X149050538Y-67925961D01*
X149050535Y-67925965D01*
X148951990Y-68073446D01*
X148951983Y-68073459D01*
X148884106Y-68237332D01*
X148884103Y-68237341D01*
X148849500Y-68411304D01*
X122500500Y-68411304D01*
X122500500Y-57124500D01*
X122520185Y-57057461D01*
X122572989Y-57011706D01*
X122624500Y-57000500D01*
X124860293Y-57000500D01*
X124927332Y-57020185D01*
G37*
%TD.AperFunction*%
%TD*%
M02*
